<?xml version="1.0" encoding="UTF-8" standalone="no"?>
<!-- Created with Inkscape (http://www.inkscape.org/) -->

<svg
   xmlns:dc="http://purl.org/dc/elements/1.1/"
   xmlns:cc="http://creativecommons.org/ns#"
   xmlns:rdf="http://www.w3.org/1999/02/22-rdf-syntax-ns#"
   xmlns:svg="http://www.w3.org/2000/svg"
   xmlns="http://www.w3.org/2000/svg"
   xmlns:sodipodi="http://sodipodi.sourceforge.net/DTD/sodipodi-0.dtd"
   xmlns:inkscape="http://www.inkscape.org/namespaces/inkscape"
   width="25.593357mm"
   height="66.553123mm"
   viewBox="0 0 90.685124 235.81815"
   id="svg2"
   version="1.1"
   inkscape:version="0.91 r13725"
   sodipodi:docname="pcb.svg">
  <defs
     id="defs4" />
  <sodipodi:namedview
     id="base"
     pagecolor="#ffffff"
     bordercolor="#666666"
     borderopacity="1.0"
     inkscape:pageopacity="0.0"
     inkscape:pageshadow="2"
     inkscape:zoom="0.69779036"
     inkscape:cx="216.93947"
     inkscape:cy="510.34481"
     inkscape:document-units="px"
     inkscape:current-layer="layer1"
     showgrid="false"
     inkscape:snap-page="true"
     fit-margin-top="0"
     fit-margin-left="0"
     fit-margin-right="0"
     fit-margin-bottom="0"
     borderlayer="true"
     inkscape:window-width="1920"
     inkscape:window-height="988"
     inkscape:window-x="0"
     inkscape:window-y="27"
     inkscape:window-maximized="1" />
  <metadata
     id="metadata7">
    <rdf:RDF>
      <cc:Work
         rdf:about="">
        <dc:format>image/svg+xml</dc:format>
        <dc:type
           rdf:resource="http://purl.org/dc/dcmitype/StillImage" />
        <dc:title></dc:title>
      </cc:Work>
    </rdf:RDF>
  </metadata>
  <g
     inkscape:label="Layer 1"
     inkscape:groupmode="layer"
     id="layer1"
     transform="translate(0,-816.54382)">
    <path
       style="fill:#000000"
       d="m 0.3935829,1052.2474 c -0.0986,-0.055 -0.22395,-0.18 -0.27859,-0.2786 -0.15476,-0.2792 -0.15254,-234.7316 0.002,-235.03088 0.0588,-0.11367 0.19537,-0.24699 0.30354,-0.29627 0.28628,-0.13044 89.5679001,-0.13044 89.8541801,0 0.10816,0.0493 0.24475,0.1826 0.30353,0.29627 0.0924,0.17862 0.10688,16.13042 0.10688,117.50687 0,90.78381 -0.0203,117.34461 -0.0896,117.49681 -0.0493,0.1082 -0.1826,0.2448 -0.29627,0.3036 -0.29899,0.1546 -89.6269301,0.1568 -89.9058601,0 z m 35.3759801,-1.8404 c 0.42446,-0.2212 21.05707,-20.8982 21.2007,-21.2463 0.10036,-0.2432 0.11506,-1.1033 0.11506,-6.7337 0,-5.6356 -0.0146,-6.4902 -0.11527,-6.7336 -0.0732,-0.177 -0.65882,-0.8267 -1.60365,-1.7789 -0.81861,-0.825 -1.5223,-1.5649 -1.56374,-1.6442 -0.045,-0.086 -0.0598,-0.5087 -0.0366,-1.05 l 0.0388,-0.9058 -0.33544,-0.7125 c -0.63089,-1.34 -1.66463,-2.025 -3.05622,-2.025 -0.57011,0 -0.75582,0.034 -1.26451,0.2334 -0.50672,0.1984 -0.67566,0.3138 -1.12494,0.7688 -0.43708,0.4426 -0.5685,0.6364 -0.75854,1.1185 -0.19564,0.4964 -0.22986,0.6827 -0.22986,1.2515 0,0.572 0.0341,0.7553 0.23658,1.2727 0.20632,0.527 0.30686,0.6716 0.78588,1.1299 0.67272,0.6436 1.39817,0.9752 2.13322,0.9752 0.24848,0 0.54291,0.048 0.6543,0.1074 0.24236,0.1286 2.51327,2.4098 2.63198,2.644 0.1302,0.2568 0.11061,10.5018 -0.0205,10.7383 -0.14193,0.256 -18.79474,18.901 -19.03646,19.0285 -0.29073,0.1534 -21.29916,0.156 -21.57571,0 -0.25639,-0.1421 -4.0513501,-3.9442 -4.1780801,-4.1859 -0.14488,-0.2763 -0.15411,-9.1524 -0.01,-9.4102 0.11547,-0.2062 7.1494601,-7.3057 7.3598801,-7.4284 0.33331,-0.1943 0.80876,-0.055 0.98684,0.2895 0.14074,0.2722 0.14942,2.7915 0.0105,3.0385 -0.11998,0.2133 -2.3575,2.5118 -2.55943,2.6292 -0.0862,0.05 -0.28557,0.092 -0.44313,0.094 -0.15756,10e-4 -0.54568,0.1084 -0.8625,0.2376 -0.46171,0.1884 -0.68228,0.3389 -1.11139,0.7586 -0.45721,0.4471 -0.56942,0.6106 -0.76875,1.1198 l -0.23339,0.5963 0,3.3654 0,3.3654 0.23339,0.5962 c 0.19834,0.5067 0.3138,0.6757 0.76875,1.125 0.4426,0.437 0.6364,0.5685 1.11856,0.7585 0.49639,0.1956 0.68267,0.2299 1.25145,0.2299 0.57011,0 0.75582,-0.034 1.26451,-0.2334 0.50776,-0.1988 0.67443,-0.3129 1.12283,-0.7688 0.43423,-0.4415 0.56725,-0.6383 0.75854,-1.1223 l 0.23197,-0.5869 0,-3.3682 c 0,-2.3798 -0.0264,-3.4669 -0.0899,-3.7042 -0.12723,-0.4757 -0.0478,-0.6017 1.17007,-1.8554 1.0883,-1.1202 1.2499,-1.2538 1.52249,-1.2582 0.48339,-0.01 0.77229,0.3564 0.77229,0.9736 0,0.4321 -0.0729,0.6106 -0.38358,0.9394 -0.11858,0.1255 -0.3339,0.5216 -0.4785,0.8802 l -0.26292,0.652 0,3.3713 0,3.3713 0.23339,0.5962 c 0.19834,0.5067 0.3138,0.6757 0.76875,1.125 0.4426,0.437 0.6364,0.5685 1.11856,0.7585 0.49639,0.1956 0.68267,0.2299 1.25145,0.2299 0.57011,0 0.75582,-0.034 1.26451,-0.2334 0.50776,-0.1988 0.67443,-0.3129 1.12283,-0.7688 0.43423,-0.4415 0.56725,-0.6383 0.75854,-1.1223 l 0.23197,-0.5869 0,-3.3673 0,-3.3674 -0.22986,-0.5832 c -0.19087,-0.4843 -0.32103,-0.6755 -0.76731,-1.1274 -0.2956,-0.2993 -0.59754,-0.5633 -0.67097,-0.5866 -0.36911,-0.1171 -0.35686,0.2418 -0.35686,-10.4567 0,-8.4854 0.016,-10.0129 0.10665,-10.185 0.12757,-0.2422 14.72075,-14.84351 14.97756,-14.98588 0.22436,-0.12438 0.89578,-0.13283 1.15538,-0.0145 0.27432,0.12499 0.41041,0.43101 0.41041,0.9229 0,0.68888 -0.0992,0.79995 -1.03729,1.16096 -0.75879,0.29202 -0.85419,0.35232 -1.3473,0.85166 -0.43919,0.44476 -0.57032,0.63796 -0.76055,1.12056 -0.1959,0.4971 -0.22986,0.6824 -0.22986,1.2543 0,0.572 0.034,0.7573 0.22986,1.2543 0.19003,0.4822 0.32145,0.676 0.75853,1.1186 0.44928,0.4549 0.61823,0.5704 1.12494,0.7687 0.50869,0.1991 0.6944,0.2334 1.26451,0.2334 1.39986,0 2.40969,-0.6651 3.04421,-2.005 0.3115,-0.6578 0.32795,-0.7263 0.32795,-1.366 0,-0.4966 -0.0394,-0.7734 -0.15,-1.054 -0.19542,-0.4958 -0.19122,-0.5624 0.075,-1.18802 l 0.225,-0.52874 0.003,-45.66036 c 0.002,-35.67879 0.0226,-45.69423 0.0937,-45.81533 0.12427,-0.2114 5.42226,-5.44708 5.6273,-5.56112 0.23615,-0.13133 9.16677,-0.13133 9.40182,0 0.0897,0.0501 0.6746,0.59179 1.29985,1.20374 1.10677,1.08324 1.53761,1.39443 1.9358,1.3982 0.24863,0.002 0.45622,0.13069 0.79995,0.49453 0.21729,0.23 0.4483,0.37315 0.82796,0.51306 l 0.52659,0.19406 2.94045,0 2.94045,0 0.50796,-0.19069 c 0.7097,-0.26643 1.22179,-0.77438 1.60488,-1.59191 0.26085,-0.55666 0.29058,-0.68095 0.29058,-1.2146 0,-0.51427 -0.0337,-0.66841 -0.25011,-1.14239 -0.13756,-0.30135 -0.30854,-0.59607 -0.37995,-0.65495 -0.16889,-0.13923 -0.34494,-0.48282 -0.34494,-0.6732 0,-0.57912 0.64808,-0.93454 1.18498,-0.64988 0.24215,0.12839 2.36315,2.25962 2.48196,2.49395 0.12943,0.25526 0.11093,11.85137 -0.0193,12.0861 -0.14077,0.25377 -3.49776,3.60478 -3.73767,3.73101 -0.27072,0.14244 -0.43471,0.13456 -0.90292,-0.0434 -0.37029,-0.14074 -0.57641,-0.14996 -3.35099,-0.15 l -2.95644,-4e-5 -0.55798,0.20625 c -1.10835,0.40968 -1.81665,1.50157 -1.81665,2.80047 0,1.30143 0.69879,2.35632 1.85307,2.7974 l 0.51261,0.19588 2.94045,0 2.94045,0 0.50796,-0.19069 c 0.56358,-0.21158 1.16281,-0.72857 1.49583,-1.29056 0.10389,-0.17531 0.2269,-0.31875 0.27336,-0.31875 0.0464,0 1.44747,-1.35843 3.11338,-3.01875 2.01265,-2.00589 3.076,-3.1194 3.16925,-3.31875 0.13401,-0.28645 0.14043,-0.62268 0.14199,-7.44615 0.001,-6.25788 -0.0127,-7.18083 -0.11354,-7.425 -0.0768,-0.18583 -0.87108,-1.03738 -2.38125,-2.55283 -2.27214,-2.2801 -2.70239,-2.63852 -3.16729,-2.63852 -0.5495,0 -0.87496,-0.4597 -0.72429,-1.02304 0.0484,-0.18101 0.088,-0.56426 0.088,-0.85167 0,-0.45014 -0.0403,-0.60852 -0.29058,-1.14268 -0.38309,-0.81753 -0.89518,-1.32548 -1.60488,-1.59191 l -0.50796,-0.1907 -2.95302,0 -2.95302,0 -0.54654,0.22242 c -0.70966,0.2888 -1.22075,0.78387 -1.5315,1.4835 -0.20316,0.45741 -0.22447,0.57939 -0.2196,1.25658 0.003,0.4125 0.0323,0.84308 0.0651,0.95684 0.0808,0.27982 -0.0757,0.6351 -0.33985,0.7717 -0.27012,0.13969 -1.06379,0.14093 -1.33228,0.002 -0.11367,-0.0588 -0.24699,-0.19536 -0.29627,-0.30353 -0.13095,-0.28739 -0.12432,-19.80802 0.007,-20.03428 0.10496,-0.18112 0.53987,-0.5683 0.77992,-0.69431 0.34485,-0.18104 0.82606,-0.0224 0.98407,0.32441 0.0494,0.1083 0.0896,0.51623 0.0896,0.90804 0,0.6108 0.0318,0.79389 0.22503,1.29493 0.29682,0.76969 0.84619,1.31698 1.61802,1.61191 l 0.52263,0.19971 2.94045,0 2.94044,0 0.50797,-0.1907 c 0.70969,-0.26643 1.22178,-0.77438 1.60488,-1.59191 0.26047,-0.55588 0.29058,-0.6814 0.29058,-1.21176 0,-0.83947 -0.27021,-1.42256 -1.01293,-2.1858 -0.56937,-0.5851 -0.68996,-0.82037 -0.6028,-1.17608 0.0331,-0.13529 0.89926,-1.05772 2.51756,-2.68125 1.65143,-1.65676 2.50524,-2.56718 2.5826,-2.75384 0.10212,-0.24639 0.11537,-1.42485 0.11392,-10.125 -0.002,-9.4561 -0.007,-9.85805 -0.14178,-10.14616 -0.18792,-0.40231 -4.57187,-4.75934 -5.00984,-4.97908 -0.30583,-0.15344 -0.41146,-0.15842 -3.35923,-0.15842 -2.86181,0 -3.06009,0.009 -3.32174,0.14491 -0.15304,0.0797 -1.42576,1.2969 -2.82826,2.70491 -1.4025,1.40801 -2.64114,2.60842 -2.75253,2.6676 -0.11586,0.0615 -0.41054,0.10758 -0.68863,0.10758 -0.35571,0 -0.65346,0.0614 -1.10998,0.22892 -0.52424,0.19237 -0.69839,0.30248 -1.09057,0.68956 -0.39058,0.38551 -0.50985,0.56843 -0.73125,1.12159 l -0.26454,0.66096 0,3.37397 0,3.37396 0.26454,0.66096 c 0.35445,0.8856 0.91938,1.46151 1.78137,1.81596 0.60601,0.24921 0.80455,0.45651 0.8037,0.83914 -7.5e-4,0.24982 -0.28548,0.67792 -0.6832,1.0265 -0.19034,0.16683 -0.38916,0.40733 -0.44181,0.53444 -0.10406,0.25121 -0.41153,0.44904 -0.69791,0.44904 -0.0994,0 -0.31203,-0.0894 -0.47248,-0.19863 -0.32853,-0.2237 -0.77803,-0.42755 -0.82943,-0.37616 -0.0187,0.0187 -0.0529,0.21738 -0.0761,0.4415 -0.0419,0.4063 -0.0413,0.40781 0.21085,0.51182 0.36911,0.15225 0.87452,0.64739 1.10338,1.08096 l 0.19954,0.37801 0,2.9625 0,2.9625 -0.19954,0.37801 c -0.22886,0.43356 -0.73427,0.92871 -1.10338,1.08096 -0.25216,0.10401 -0.25279,0.10552 -0.21085,0.51182 0.0231,0.22412 0.0588,0.42429 0.0794,0.4448 0.0575,0.0575 0.79192,-0.31851 1.19885,-0.61371 0.54611,-0.39617 0.87529,-0.34204 1.31852,0.21681 0.42475,0.53557 0.4005,0.84246 -0.10965,1.38785 -0.60965,0.65177 -0.56081,-0.33774 -0.56081,11.36252 0,7.95103 -0.0215,10.50857 -0.0896,10.65803 -0.18918,0.41522 -0.12887,0.41014 -4.91292,0.41355 -4.04723,0.003 -4.43015,0.0139 -4.65528,0.13398 -0.35677,0.19029 -25.21112,25.0484 -25.33789,25.34172 -0.087,0.20139 -0.10435,1.65386 -0.10458,8.775 0,8.3315 -0.004,8.53934 -0.14668,8.77377 -0.1578,0.25879 -0.49884,0.47239 -0.75425,0.47239 -0.25318,0 -0.44666,-0.13348 -1.10488,-0.76221 -0.34023,-0.32497 -0.70299,-0.62932 -0.80616,-0.67632 -0.10315,-0.047 -0.26939,-0.2235 -0.36942,-0.39222 -0.32652,-0.55078 -0.92946,-1.06858 -1.48879,-1.27856 l -0.50797,-0.19069 -2.92157,0 -2.92157,0 -0.50797,0.19069 c -0.7097,0.26643 -1.2217901,0.77438 -1.6048801,1.59191 -0.2612,0.55743 -0.29058,0.6805 -0.29058,1.2174 0,0.53689 0.0294,0.65997 0.29058,1.21739 0.38309,0.81753 0.8951801,1.32548 1.6048801,1.59191 l 0.50797,0.1907 2.92797,0 c 2.80962,0 2.94681,-0.007 3.39351,-0.16247 0.31871,-0.11123 0.53442,-0.14518 0.68397,-0.10765 0.13133,0.033 0.54951,0.37584 1.04853,0.85971 0.45655,0.44269 0.88916,0.85395 0.96136,0.9139 0.0722,0.06 0.71333,0.69963 1.42475,1.42151 0.7114,0.72187 4.42986,4.4573 8.26324,8.30094 3.83339,3.84365 7.01324,7.06677 7.06636,7.1625 0.13766,0.24813 0.14305,29.41581 0.005,29.66218 -0.11326,0.20284 -19.29687,19.45244 -19.5108,19.57794 -0.33543,0.1968 -0.84284,0.038 -1.00319,-0.314 -0.0685,-0.1504 -0.0896,-3.7858 -0.0896,-15.45932 0,-16.68254 -0.0297,-15.58616 0.42771,-15.76709 0.11539,-0.0456 0.44604,-0.16993 0.73479,-0.27619 0.39248,-0.14445 0.62911,-0.2944 0.9375,-0.59406 0.59844,-0.58153 0.82293,-0.66815 1.23959,-0.4783 0.26015,0.11853 0.41041,0.42602 0.41041,0.83988 0,0.18532 0.0862,0.56944 0.19152,0.85363 0.1527,0.41196 0.28571,0.60971 0.65625,0.97563 1.26643,1.25067 3.0355,1.23778 4.26688,-0.0311 0.27917,-0.28767 0.50652,-0.61797 0.65625,-0.9534 l 0.2291,-0.51324 0,-2.91102 0,-2.91102 -0.2291,-0.51324 c -0.31795,-0.7123 -0.91584,-1.31601 -1.63131,-1.64715 -0.47819,-0.22133 -0.62424,-0.25359 -1.14786,-0.25359 -0.84051,0 -1.50275,0.28302 -2.14396,0.91625 -0.37054,0.36592 -0.50355,0.56367 -0.65625,0.97564 -0.10534,0.28418 -0.19152,0.66831 -0.19152,0.85362 0,0.41386 -0.15026,0.72135 -0.41041,0.83988 -0.41666,0.18985 -0.64115,0.10323 -1.23959,-0.47829 -0.30048,-0.29199 -0.55044,-0.45261 -0.92046,-0.59147 l -0.50797,-0.19063 -2.92157,0 -2.92157,0 -0.50797,0.19069 c -0.7097,0.26643 -1.2217901,0.77438 -1.6048801,1.59191 -0.2612,0.55743 -0.29058,0.6805 -0.29058,1.2174 0,0.53689 0.0294,0.65997 0.29058,1.21739 0.5375,1.14704 1.4627501,1.78261 2.5951001,1.78261 0.26524,0 0.57075,0.0403 0.67891,0.0896 0.44059,0.20074 0.41064,-1.4904 0.40775,23.02538 -0.002,17.5238 -0.0229,22.5588 -0.0937,22.6859 -0.0501,0.09 -1.81234,1.8948 -3.9160901,4.0111 -2.55187,2.567 -3.86869,3.9445 -3.95625,4.1385 -0.1214,0.2691 -0.13113,0.7251 -0.1296,6.0765 0.002,6.4898 -0.0271,6.1438 0.55222,6.6119 0.15222,0.123 0.45116,0.4092 0.66431,0.6361 1.54018,1.6394 4.8765201,4.9176 5.1943201,5.1038 l 0.375,0.2198 11.87173,7e-4 c 11.59087,8e-4 11.87833,0 12.15,-0.1443 z m -23.94673,-0.8283 c -0.0825,-0.035 -1.44938,-1.3668 -3.0375001,-2.9584 l -2.8875,-2.894 0,-5.7744 0,-5.7743 4.03125,-4.0318 4.0312501,-4.0318 0,-23.4109 0,-23.41093 -1.25625,-0.0288 c -1.13548,-0.026 -1.2887,-0.0455 -1.59375,-0.20301 -0.45978,-0.23736 -0.87384,-0.64626 -1.1097,-1.09584 -0.1674601,-0.31921 -0.1967201,-0.46983 -0.1967201,-1.0125 0,-0.54267 0.0293,-0.69328 0.1967201,-1.0125 0.23496,-0.44785 0.64782,-0.85647 1.1097,-1.0983 l 0.3375,-0.1767 2.9625,0 2.9625,0 0.3375,0.1767 c 0.46188,0.24183 0.87474,0.65045 1.10969,1.0983 0.16746,0.31922 0.19672,0.46983 0.19672,1.0125 0,0.54267 -0.0293,0.69329 -0.19672,1.0125 -0.23718,0.45211 -0.65294,0.86131 -1.10969,1.09221 -0.26922,0.1361 -0.50055,0.1776 -1.14341,0.20508 l -0.8059,0.0344 -0.0191,23.76509 -0.0191,23.7652 -4.03125,4.0317 -4.0312501,4.0318 0,5.0627 0,5.0626 2.4191701,2.4184 2.41918,2.4183 11.13718,0 11.13718,0 9.84364,-9.8439 9.84364,-9.8438 0,-5.7381 0,-5.7381 -1.55625,-1.5529 -1.55625,-1.5529 -0.3375,0.079 c -0.47436,0.1114 -1.21727,0.028 -1.69377,-0.1903 -0.52355,-0.2396 -1.11301,-0.8337 -1.36593,-1.3765 -0.17054,-0.3661 -0.20043,-0.5309 -0.20043,-1.1052 0,-0.5743 0.0299,-0.7392 0.20043,-1.1052 0.25609,-0.5497 0.84237,-1.1359 1.39202,-1.392 0.36601,-0.1706 0.53088,-0.2005 1.10518,-0.2005 0.57431,0 0.73918,0.03 1.10519,0.2005 0.54964,0.2561 1.13593,0.8423 1.39202,1.392 0.17064,0.3662 0.20039,0.5305 0.20015,1.1052 0,0.5721 -0.0301,0.7378 -0.19625,1.0875 l -0.19597,0.4125 1.73493,1.7443 1.73493,1.7444 0,6.4493 0,6.4494 -10.36877,10.3688 -10.36878,10.3688 -11.75622,0.014 c -6.46593,0.01 -11.82372,-0.015 -11.90622,-0.05 z m 39.10536,-36.9746 c 1.06096,-0.3043 1.53688,-1.5978 0.93142,-2.5316 -0.6537,-1.0081 -2.16857,-1.0102 -2.82113,0 -0.84771,1.3074 0.38848,2.9659 1.88971,2.5353 z m -36.0165,-36.38183 c 0.28732,-0.10855 0.62049,-0.43221 0.74538,-0.72407 0.36238,-0.84696 -0.28448,-1.82116 -1.20924,-1.82116 -0.70672,0 -1.3125,0.60242 -1.3125,1.30521 0,0.90819 0.93223,1.55895 1.77636,1.24002 z m -1.21386,67.02913 c -0.81975,-0.2722 -1.39436,-0.7715 -1.73995,-1.5119 l -0.21005,-0.45 0,-3.3375 0,-3.3375 0.21179,-0.4582 c 0.44227,-0.957 1.34413,-1.5484 2.40899,-1.5797 l 0.59579,-0.018 1.52211,-1.5207 1.52212,-1.5208 0.0196,-9.4702 0.0196,-9.4702 10.10625,-10.1064 10.10625,-10.10647 0,-15.1875 0,-15.1875 -9.82327,-9.82305 -9.82327,-9.82306 -0.28298,0.27146 c -0.15564,0.1493 -0.43486,0.35098 -0.62048,0.44816 l -0.3375,0.1767 -2.9625,0 -2.9625,0 -0.3375,-0.1767 c -0.46188,-0.24182 -0.87474,-0.65044 -1.1097,-1.0983 -0.1674601,-0.31921 -0.1967201,-0.46983 -0.1967201,-1.0125 0,-0.54267 0.0293,-0.69328 0.1967201,-1.0125 0.23496,-0.44785 0.64782,-0.85647 1.1097,-1.0983 l 0.3375,-0.1767 2.9625,0 2.9625,0 0.3375,0.1767 c 0.18562,0.0972 0.46698,0.29969 0.62523,0.45 0.2867,0.27233 0.64977,0.8818 0.64977,1.09076 0,0.0605 0.0759,0.13242 0.16875,0.1599 0.0928,0.0275 0.68337,0.56084 1.31236,1.18526 l 1.14362,1.13531 0.89922,-0.89688 0.89923,-0.89689 0.0197,-8.7958 0.0197,-8.79582 12.39375,-12.39377 12.39374,-12.39376 5.13678,-0.0203 5.13678,-0.0203 0.0195,-11.20942 0.0195,-11.20942 0.65625,-0.65929 c 0.62838,-0.6313 0.65625,-0.67351 0.65625,-0.99383 0,-0.32033 -0.0279,-0.36254 -0.65625,-0.99384 l -0.65625,-0.65931 0,-4.42313 0,-4.42314 3.57849,-3.58154 3.57849,-3.58154 0.0215,-2.4 0.0215,-2.4 0.20997,-0.45 c 0.27349,-0.58616 0.78332,-1.09829 1.35675,-1.36286 0.38883,-0.1794 0.5549,-0.21145 1.09578,-0.21145 0.54089,0 0.70696,0.0321 1.09578,0.21145 0.57344,0.26457 1.08327,0.7767 1.35676,1.36286 l 0.20996,0.45 0,3.3375 0,3.3375 -0.20996,0.45 c -0.27349,0.58615 -0.78332,1.09828 -1.35676,1.36285 -0.3885,0.17926 -0.55534,0.2115 -1.09578,0.2118 -0.54158,0 -0.7052,-0.0313 -1.0875,-0.20971 -0.51585,-0.2408 -1.03152,-0.70758 -1.25091,-1.13235 l -0.15102,-0.29241 -2.80528,2.80453 -2.80529,2.80454 0,3.71139 0,3.71139 0.65625,0.65931 0.65625,0.6593 0,1.04686 0,1.04685 -0.65625,0.65931 -0.65625,0.65931 0,10.84923 0,10.84923 1.08615,0.0243 1.08614,0.0243 0.65909,0.65625 0.65909,0.65625 3.70953,0 3.70953,0 0.65931,-0.65625 0.65931,-0.65625 1.04827,0 1.04828,0 2.2689,2.2689 2.2689,2.2689 0,7.12449 0,7.12449 -2.91994,2.92066 c -1.60598,1.60637 -2.99816,2.9403 -3.09375,2.96429 -0.0956,0.024 -0.17381,0.0949 -0.17381,0.15768 0,0.41012 -0.64843,1.20701 -1.2375,1.52082 l -0.375,0.19977 -2.9625,0 -2.9625,0 -0.375,-0.19977 c -0.45149,-0.24052 -0.85985,-0.65535 -1.0954,-1.11273 -0.24961,-0.48468 -0.24961,-1.46532 0,-1.95 0.23555,-0.45739 0.64391,-0.87222 1.0954,-1.11273 l 0.375,-0.19977 2.9625,0 2.9625,0 0.3375,0.1767 c 0.18563,0.0972 0.46477,0.29878 0.62031,0.44799 l 0.28282,0.2713 2.39843,-2.39755 2.39844,-2.39757 0,-6.41353 0,-6.41354 -1.74433,-1.74315 -1.74434,-1.74315 -0.33543,0 c -0.32145,0 -0.36291,0.0274 -0.99474,0.65625 l -0.6593,0.65625 -4.42186,0 -4.42185,0 -0.65931,-0.65625 -0.65931,-0.65625 -6.4111,0 -6.41111,0 -11.86801,11.86875 -11.86801,11.86875 -0.0194,8.79285 -0.0194,8.79284 -1.16199,1.1638 -1.16199,1.16379 8.58699,8.58723 8.58699,8.58723 0,15.89977 0,15.89977 -10.10565,10.1064 -10.10564,10.1063 -0.0194,9.4681 -0.0193,9.4681 -1.62831,1.6319 -1.6283,1.6319 0.2783,0.5578 0.27831,0.5577 0,3.3423 0,3.3422 -0.2118,0.4583 c -0.42597,0.9217 -1.32735,1.5313 -2.3341,1.5784 -0.30782,0.014 -0.65457,-0.017 -0.8291,-0.075 z m 1.23036,-3.6473 c 1.06096,-0.3043 1.53688,-1.5978 0.93142,-2.5316 -0.6537,-1.0081 -2.16856,-1.0102 -2.82113,0 -0.8477,1.3074 0.38848,2.9659 1.88971,2.5353 z m -0.0165,-99.38183 c 0.28732,-0.10855 0.62049,-0.43221 0.74538,-0.72407 0.36238,-0.84696 -0.28448,-1.82116 -1.20924,-1.82116 -0.70672,0 -1.3125,0.60242 -1.3125,1.30521 0,0.90819 0.93223,1.55895 1.77636,1.24002 z m 54,-17.99999 c 0.28732,-0.10856 0.62049,-0.43221 0.74537,-0.72408 0.36239,-0.84696 -0.28447,-1.82115 -1.20924,-1.82115 -0.70671,0 -1.3125,0.60241 -1.3125,1.30521 0,0.90819 0.93224,1.55895 1.77637,1.24002 z m 0.0165,-67.11819 c 1.06096,-0.30428 1.53688,-1.59781 0.93142,-2.53157 -0.6537,-1.00816 -2.16857,-1.01017 -2.82113,-0.004 -0.84771,1.30736 0.38848,2.96588 1.88971,2.53533 z m -46.23036,188.14731 c -0.81975,-0.2722 -1.39436,-0.7715 -1.73995,-1.5119 l -0.21005,-0.45 0,-3.3375 0,-3.3375 0.21556,-0.4666 c 0.14253,-0.3086 0.35852,-0.6008 0.6375,-0.8625 l 0.42194,-0.3959 0.0375,-11.1562 0.0375,-11.1562 8.34364,-8.3438 8.34365,-8.34376 1.76241,-0.0226 1.76241,-0.0226 0.0189,-43.60855 0.019,-43.60855 3.61884,-3.61885 3.61885,-3.61884 5.77412,0 5.77412,0 1.33279,1.33125 c 0.73304,0.73218 1.37237,1.33125 1.42073,1.33125 0.0484,0 0.11092,-0.0724 0.13901,-0.16092 0.0847,-0.26691 0.64135,-0.81475 1.04353,-1.02705 l 0.378,-0.19953 2.9625,0 2.9625,0 0.375,0.19977 c 0.4515,0.24051 0.85986,0.65534 1.09541,1.11273 0.14164,0.27504 0.17381,0.45547 0.17381,0.975 0,0.51952 -0.0322,0.69996 -0.17381,0.975 -0.23555,0.45738 -0.64391,0.87221 -1.09541,1.11273 l -0.375,0.19977 -2.9625,0 -2.9625,0 -0.378,-0.19954 c -0.39653,-0.20931 -0.95849,-0.75911 -1.04072,-1.01819 -0.0397,-0.1252 -0.12813,-0.15785 -0.50035,-0.18477 l -0.45207,-0.0327 -1.32769,-1.32615 -1.32769,-1.32615 -5.06208,0 -5.06207,0 -3.09323,3.0939 -3.09323,3.0939 -0.0189,45.916 -0.0189,45.916 -0.38826,0.39635 -0.38825,0.39634 0.22793,0.26246 c 0.12535,0.1444 0.31641,0.4482 0.42456,0.675 0.16709,0.3505 0.19665,0.514 0.19665,1.0875 0,0.5743 -0.0299,0.7392 -0.20043,1.1052 -0.25609,0.5497 -0.84237,1.136 -1.39202,1.392 -0.36601,0.1706 -0.53088,0.2005 -1.10518,0.2005 -0.57431,0 -0.73918,-0.03 -1.10519,-0.2005 -0.54964,-0.256 -1.13593,-0.8423 -1.39202,-1.392 -0.17054,-0.366 -0.20043,-0.5309 -0.20043,-1.1052 0,-0.5743 0.0299,-0.7391 0.20043,-1.1051 0.39432,-0.8464 1.26815,-1.49472 2.15548,-1.59932 0.3711,-0.0438 0.45984,-0.0911 0.81048,-0.43227 l 0.39375,-0.38314 0,-1.40881 0,-1.40882 -1.40639,0 -1.40638,0 -7.81862,7.81886 -7.81861,7.8189 0,10.6686 c 0,10.1106 0.007,10.6686 0.13125,10.6687 0.25992,0 1.0377,0.4392 1.34619,0.76 0.17322,0.1801 0.40947,0.5299 0.525,0.7774 l 0.21006,0.45 0,3.3375 0,3.3375 -0.2118,0.4583 c -0.42597,0.9217 -1.32735,1.5313 -2.3341,1.5784 -0.30782,0.014 -0.65457,-0.017 -0.8291,-0.075 z m 1.23036,-3.6473 c 1.06096,-0.3043 1.53688,-1.5978 0.93142,-2.5316 -0.6537,-1.0081 -2.16856,-1.0102 -2.82113,0 -0.8477,1.3074 0.38848,2.9659 1.88971,2.5353 z m 18,-36 c 1.06096,-0.3043 1.53688,-1.5978 0.93142,-2.5316 -0.6537,-1.0081 -2.16856,-1.0102 -2.82113,0 -0.8477,1.3074 0.38848,2.9659 1.88971,2.5353 z m 26.9835,-99.38182 c 0.28732,-0.10856 0.62049,-0.43221 0.74537,-0.72408 0.36239,-0.84696 -0.28447,-1.82115 -1.20924,-1.82115 -0.70671,0 -1.3125,0.60241 -1.3125,1.30521 0,0.90819 0.93224,1.55895 1.77637,1.24002 z m -46.06386,75.31409 c -0.62904,-0.16696 -1.21991,-0.6571 -1.5483,-1.28433 l -0.1767,-0.3375 0,-2.9625 0,-2.9625 0.1767,-0.3375 c 0.24182,-0.46188 0.65044,-0.87474 1.0983,-1.10969 0.31921,-0.16746 0.46983,-0.19672 1.0125,-0.19672 0.54267,0 0.69328,0.0293 1.0125,0.19672 0.44785,0.23495 0.85647,0.64781 1.0983,1.10969 l 0.1767,0.3375 0,2.9625 0,2.9625 -0.1767,0.3375 c -0.41533,0.79327 -1.11503,1.2651 -1.94938,1.31451 -0.27441,0.0163 -0.60017,0.003 -0.72392,-0.0302 z m 1.06386,-3.3141 c 0.28732,-0.10855 0.62049,-0.43221 0.74538,-0.72407 0.36238,-0.84696 -0.28448,-1.82116 -1.20924,-1.82116 -0.70672,0 -1.3125,0.60242 -1.3125,1.30521 0,0.90819 0.93223,1.55895 1.77636,1.24002 z m 41.61113,-80.01353 c -0.62232,-0.15789 -1.22337,-0.65638 -1.5454,-1.28169 -0.1417,-0.27515 -0.17378,-0.45529 -0.17366,-0.975 0,-0.54249 0.0295,-0.69339 0.19687,-1.0125 0.23495,-0.44786 0.64781,-0.85648 1.10969,-1.0983 l 0.3375,-0.1767 2.9625,0 2.9625,0 0.3375,0.1767 c 0.46188,0.24182 0.87474,0.65044 1.1097,1.0983 0.16746,0.31921 0.19672,0.46983 0.19672,1.0125 0,0.54267 -0.0293,0.69328 -0.19672,1.0125 -0.23496,0.44785 -0.64782,0.85647 -1.1097,1.0983 -0.33557,0.17568 -0.35355,0.17677 -3.15,0.18984 -1.54687,0.007 -2.91375,-0.0126 -3.0375,-0.044 z m 3.38887,-0.98646 c 0.28732,-0.10856 0.62049,-0.43221 0.74537,-0.72408 0.36239,-0.84696 -0.28447,-1.82115 -1.20924,-1.82115 -0.70671,0 -1.3125,0.60241 -1.3125,1.30521 0,0.90819 0.93224,1.55895 1.77637,1.24002 z m -3.38887,-17.01354 c -0.62232,-0.15789 -1.22337,-0.65638 -1.5454,-1.28169 -0.1417,-0.27515 -0.17378,-0.45529 -0.17366,-0.975 0,-0.54249 0.0295,-0.69339 0.19687,-1.0125 0.23585,-0.44958 0.64992,-0.85848 1.10969,-1.09584 0.30476,-0.15734 0.45855,-0.17702 1.58492,-0.20284 l 1.24742,-0.0286 0.0361,-0.37583 0.0361,-0.37583 3.34771,-3.34834 3.34772,-3.34834 0,-9.11279 0,-9.11279 -1.74433,-1.74315 -1.74434,-1.74315 -2.36148,0 -2.36149,0 -2.41058,2.40972 -2.41058,2.40972 0.19766,0.42153 0.19764,0.42153 0,3.3375 0,3.3375 -0.20996,0.45 c -0.27349,0.58615 -0.78332,1.09828 -1.35676,1.36285 -0.38882,0.1794 -0.55489,0.21145 -1.09578,0.21145 -0.54088,0 -0.70695,-0.0321 -1.09578,-0.21145 -0.57343,-0.26457 -1.08326,-0.7767 -1.35675,-1.36285 l -0.20997,-0.45 0,-3.3375 0,-3.3375 0.20997,-0.45 c 0.53329,-1.14299 1.91439,-1.85159 3.01503,-1.54693 l 0.3,0.083 2.75664,-2.75555 2.75662,-2.75555 3.07447,0 3.07447,0 2.2689,2.2689 2.2689,2.2689 0,9.82454 0,9.82453 -3.36471,3.36533 -3.3647,3.36533 0.8147,0.0348 c 0.65168,0.0279 0.88225,0.069 1.15221,0.20544 0.45676,0.2309 0.87252,0.6401 1.1097,1.09221 0.16746,0.31921 0.19672,0.46983 0.19672,1.0125 0,0.54267 -0.0293,0.69328 -0.19672,1.0125 -0.23496,0.44785 -0.64782,0.85647 -1.1097,1.0983 -0.33557,0.17568 -0.35355,0.17677 -3.15,0.18984 -1.54687,0.007 -2.91375,-0.0126 -3.0375,-0.044 z m 3.38887,-0.98646 c 0.28732,-0.10856 0.62049,-0.43221 0.74537,-0.72408 0.36239,-0.84696 -0.28447,-1.82115 -1.20924,-1.82115 -0.70671,0 -1.3125,0.60241 -1.3125,1.30521 0,0.90819 0.93224,1.55895 1.77637,1.24002 z m -8.9835,-22.11819 c 1.06096,-0.30428 1.53688,-1.59781 0.93142,-2.53157 -0.6537,-1.00816 -2.16857,-1.01017 -2.82113,-0.004 -0.84771,1.30736 0.38848,2.96588 1.88971,2.53533 z m 3.41963,16.43229 c -0.62903,-0.16697 -1.2199,-0.65711 -1.5483,-1.28433 l -0.1767,-0.3375 0,-2.9625 0,-2.9625 0.1767,-0.3375 c 0.24183,-0.46188 0.65045,-0.87474 1.0983,-1.1097 0.31922,-0.16746 0.46983,-0.19672 1.0125,-0.19672 0.54267,0 0.69329,0.0293 1.0125,0.19672 0.44786,0.23496 0.85648,0.64782 1.0983,1.1097 l 0.1767,0.3375 0,2.9625 0,2.9625 -0.1767,0.3375 c -0.41532,0.79326 -1.11502,1.26509 -1.94937,1.3145 -0.27441,0.0163 -0.60018,0.003 -0.72393,-0.0302 z m 1.06387,-3.3141 c 0.28732,-0.10856 0.62049,-0.43221 0.74537,-0.72408 0.36239,-0.84696 -0.28447,-1.82115 -1.20924,-1.82115 -0.70671,0 -1.3125,0.60241 -1.3125,1.30521 0,0.90819 0.93224,1.55895 1.77637,1.24002 z m 11.34863,180.39712 c 1.38585,-0.3547 1.38897,-0.3559 2.6192,-1.0675 1.17922,-0.682 1.27888,-0.7587 2.33918,-1.7999 1.10721,-1.0872 1.10766,-1.0878 1.77422,-2.2926 0.53283,-0.9631 0.70896,-1.3622 0.87708,-1.9875 0.1157,-0.4303 0.29022,-1.0646 0.38784,-1.4095 0.15929,-0.5628 0.17748,-0.7779 0.17748,-2.0977 l 0,-1.4705 -0.38614,-1.4188 c -0.33652,-1.2364 -0.44209,-1.5163 -0.82142,-2.1773 -0.23939,-0.4172 -0.54236,-0.9672 -0.67325,-1.2221 -0.18396,-0.3584 -0.48904,-0.7074 -1.34399,-1.5375 -1.04574,-1.0154 -1.17294,-1.1128 -2.33435,-1.7863 -1.22814,-0.7123 -1.22859,-0.7125 -2.61585,-1.0676 l -1.3875,-0.3551 -1.48263,-10e-4 -1.48265,-10e-4 -1.38354,0.3462 -1.38353,0.3462 -1.22132,0.7081 c -1.17921,0.6837 -1.25946,0.7461 -2.32753,1.8101 -0.8266,0.8234 -1.15577,1.2062 -1.30225,1.5144 -0.10782,0.2269 -0.25464,0.48 -0.32626,0.5625 -0.0716,0.082 -0.30247,0.4537 -0.51302,0.825 -0.33122,0.584 -0.42875,0.8603 -0.72379,2.0504 l -0.34098,1.3753 7.5e-4,1.5122 7.5e-4,1.5121 0.35966,1.3962 c 0.28815,1.1186 0.42059,1.4988 0.66619,1.9125 0.16859,0.284 0.49459,0.8369 0.72444,1.2288 0.3435,0.5856 0.60867,0.9017 1.48939,1.7754 1.01774,1.0097 1.13168,1.0981 2.27149,1.7625 1.18805,0.6926 1.21344,0.7031 2.55,1.0497 l 1.35,0.3501 1.5375,0 1.5375,0.01 1.3875,-0.3551 z m -4.15239,-0.3223 c -3.93538,-0.5447 -7.24717,-3.2752 -8.48477,-6.9956 -0.42776,-1.2859 -0.52237,-1.8857 -0.52237,-3.312 0,-1.4262 0.0946,-2.026 0.52237,-3.312 1.01793,-3.06 3.45263,-5.4947 6.51266,-6.5126 1.28592,-0.4278 1.88579,-0.5224 3.312,-0.5224 1.42622,0 2.02608,0.095 3.31201,0.5224 3.06002,1.0179 5.49473,3.4526 6.51266,6.5126 0.42776,1.286 0.52237,1.8858 0.52237,3.312 0,1.4263 -0.0946,2.0261 -0.52237,3.312 -0.74814,2.249 -2.26704,4.1719 -4.35573,5.5142 -0.88164,0.5666 -2.30899,1.1246 -3.51894,1.3756 -0.71231,0.1478 -2.5574,0.2071 -3.28989,0.1058 z m 2.91489,-5.3482 c 0.82689,-0.266 1.47835,-0.665 2.09886,-1.2855 0.61528,-0.6153 1.01401,-1.263 1.29209,-2.0989 0.17513,-0.5264 0.1996,-0.7195 0.1996,-1.575 0,-0.8554 -0.0245,-1.0485 -0.1996,-1.575 -0.27808,-0.8358 -0.67681,-1.4835 -1.29209,-2.0988 -0.6153,-0.6153 -1.26299,-1.014 -2.09886,-1.2921 -0.52644,-0.1751 -0.71953,-0.1996 -1.575,-0.1996 -0.85546,0 -1.04856,0.024 -1.575,0.1996 -0.83586,0.2781 -1.48356,0.6768 -2.09885,1.2921 -0.61528,0.6153 -1.01401,1.263 -1.29209,2.0988 -0.17513,0.5265 -0.1996,0.7196 -0.1996,1.575 0,0.8546 0.0246,1.0493 0.19936,1.5766 0.60312,1.8199 2.01064,3.0886 3.91618,3.5297 0.68722,0.1591 1.88137,0.092 2.625,-0.1469 z m -43.08749,0.6747 c 0,-0.4693 -0.005,-0.4803 -0.24375,-0.578 -0.4105,-0.1679 -0.99247,-0.779 -1.22788,-1.2894 -0.20422,-0.4428 -0.21656,-0.5291 -0.24077,-1.6854 l -0.0255,-1.2188 -0.44354,0 -0.44355,0 0,1.0796 c 0,1.2208 0.1182,1.7572 0.56356,2.5579 0.33768,0.6071 0.71948,0.9586 1.42754,1.3143 0.32646,0.164 0.60264,0.2982 0.61373,0.2982 0.0111,0 0.0202,-0.2152 0.0202,-0.4784 z m 2.99754,-0.057 c 0.54294,-0.3799 0.74802,-0.597 1.0172,-1.077 0.39152,-0.698 0.48526,-1.1791 0.48526,-2.4904 l 0,-1.1467 -0.40605,0 -0.40605,0 -0.0252,1.2187 c -0.0238,1.1508 -0.0369,1.2439 -0.23526,1.6688 -0.25299,0.5419 -0.71284,1.035 -1.19619,1.2826 l -0.35625,0.1824 0,0.4484 0,0.4485 0.39129,-0.1487 c 0.2152,-0.082 0.54426,-0.2557 0.73125,-0.3866 z m -1.50468,-3.9621 c 1.06096,-0.3043 1.53688,-1.5978 0.93142,-2.5315 -0.6537,-1.0082 -2.16856,-1.0102 -2.82113,0 -0.8477,1.3073 0.38848,2.9658 1.88971,2.5353 z m -3.20526,-3.7708 c 0.0242,-1.1563 0.0366,-1.2426 0.24077,-1.6854 0.23541,-0.5104 0.81738,-1.1215 1.22788,-1.2893 0.2389,-0.098 0.24375,-0.1092 0.24375,-0.5755 l 0,-0.4757 -0.35573,0.1525 c -0.83884,0.3596 -1.32916,0.7777 -1.70571,1.4547 -0.44536,0.8007 -0.56356,1.3372 -0.56356,2.5579 l 0,1.0796 0.44355,0 0.44354,0 0.0255,-1.2188 z m 6.2124,0.072 c 0,-1.3113 -0.0937,-1.7923 -0.48526,-2.4904 -0.36548,-0.6516 -0.99208,-1.1761 -1.74845,-1.4635 l -0.39129,-0.1487 0,0.4484 0,0.4484 0.35625,0.1825 c 0.48335,0.2475 0.9432,0.7406 1.19619,1.2826 0.19834,0.4249 0.21146,0.5179 0.23526,1.6687 l 0.0252,1.2188 0.40605,0 0.40605,0 0,-1.1468 z m 36.28373,-16.5856 c 0.48986,-0.2525 12.93412,-12.7042 13.10118,-13.109 0.10259,-0.2485 0.1149,-2.7401 0.11343,-22.94997 -0.002,-22.01576 -0.006,-22.67983 -0.14238,-22.97116 -0.0961,-0.2048 -1.91775,-2.07304 -5.74068,-5.8875 -3.07998,-3.07312 -5.6484,-5.67864 -5.70762,-5.79002 -0.0638,-0.12002 -0.10767,-0.41488 -0.10767,-0.72379 0,-0.44817 -0.0409,-0.60905 -0.29148,-1.14747 -0.38378,-0.8245 -0.89184,-1.33068 -1.60398,-1.59802 l -0.50796,-0.1907 -2.94045,0 -2.94045,0 -0.52659,0.19901 c -1.96431,0.74235 -2.48823,3.44701 -0.96274,4.97005 0.33826,0.33771 0.55435,0.47984 0.96274,0.6332 l 0.52659,0.19774 2.77341,0.003 c 2.13195,0.002 2.81409,0.0252 2.94927,0.1002 0.25507,0.14146 10.50303,10.39644 10.62991,10.63717 0.14426,0.27372 0.14417,1.42004 0,1.6991 -0.18435,0.3565 -0.62505,0.47888 -1.0031,0.27856 -0.11138,-0.059 -1.72761,-1.63683 -3.5916,-3.50625 -2.45852,-2.46567 -3.40373,-3.46071 -3.44243,-3.62394 -0.0293,-0.12375 -0.17909,-0.495 -0.33276,-0.825 -0.37056,-0.79577 -0.88927,-1.30735 -1.59369,-1.5718 l -0.50797,-0.1907 -2.93597,0 -2.93598,0 -0.55603,0.20625 c -0.45347,0.16821 -0.62897,0.28387 -0.95141,0.62702 -0.48163,0.51256 -0.45729,0.47351 -0.68306,1.09597 -0.13627,0.37569 -0.18412,0.65939 -0.18412,1.09161 0,1.2871 0.70455,2.3444 1.85525,2.78411 l 0.53483,0.20437 3.21589,-0.0148 c 2.14888,-0.01 3.2641,0.0115 3.3612,0.0646 0.20316,0.11101 6.94114,6.8727 7.05754,7.08236 0.12215,0.22003 0.12976,1.41182 0.0107,1.67317 -0.15734,0.34533 -0.63573,0.50431 -0.98407,0.32703 -0.0901,-0.0458 -1.12704,-1.04147 -2.30431,-2.2125 -1.17727,-1.17102 -2.17812,-2.12913 -2.22412,-2.12913 -0.046,0 -0.16864,-0.14343 -0.27252,-0.31875 -0.33303,-0.56198 -0.93226,-1.07898 -1.49583,-1.29055 l -0.50797,-0.1907 -2.94203,0 -2.94204,0 -0.54933,0.21405 c -1.13637,0.44331 -1.81332,1.48324 -1.81332,2.78598 0,1.30291 0.7062,2.37925 1.83909,2.80302 l 0.52659,0.19698 2.96091,-3e-5 c 2.77906,-4e-5 2.98515,-0.009 3.35547,-0.15 0.46793,-0.17785 0.63199,-0.18582 0.90292,-0.0438 0.23786,0.12467 3.59838,3.48053 3.73889,3.73371 0.1413,0.2546 0.13914,7.81952 -0.002,8.07461 -0.054,0.0973 -4.12808,4.21032 -9.0536,9.13998 -8.06563,8.07245 -9.00018,8.98397 -9.40546,9.17368 -0.6935,0.32464 -1.39115,1.07825 -1.6826,1.81755 -0.19596,0.4971 -0.2299,0.6823 -0.2299,1.2543 0,0.572 0.034,0.7573 0.22986,1.2543 0.19003,0.4822 0.32146,0.676 0.75853,1.1186 0.44928,0.4549 0.61823,0.5704 1.12494,0.7687 0.50869,0.1991 0.69441,0.2334 1.26451,0.2334 1.39986,0 2.40969,-0.6651 3.04421,-2.005 0.31092,-0.6566 0.32795,-0.7272 0.32795,-1.3609 0,-0.5751 -0.0314,-0.7421 -0.225,-1.1971 -0.24347,-0.5721 -0.26978,-0.78456 -0.1286,-1.03798 0.11361,-0.20391 15.47129,-15.62753 15.68526,-15.75259 0.33639,-0.19662 0.84334,-0.038 1.00374,0.314 0.0673,0.14779 0.0896,1.86469 0.0896,6.90935 0,5.67402 -0.0166,6.74403 -0.10718,6.91522 -0.12975,0.24521 -9.17912,9.2998 -9.42704,9.4325 -0.12456,0.067 -0.4176,0.082 -1.01935,0.052 -0.82038,-0.04 -0.8625,-0.035 -1.47289,0.2013 -0.54583,0.211 -0.69802,0.3134 -1.15859,0.7798 -0.43871,0.4443 -0.56991,0.6376 -0.76009,1.1202 -0.19565,0.4964 -0.22986,0.6826 -0.22986,1.2514 0,0.572 0.0341,0.7553 0.23658,1.2727 0.20632,0.5271 0.30685,0.6716 0.78588,1.1299 0.74497,0.7127 1.37826,0.9753 2.35254,0.9753 1.38624,0 2.42875,-0.6855 3.04931,-2.0051 0.27371,-0.582 0.32612,-0.7675 0.32834,-1.1625 0.001,-0.2584 0.0436,-0.5434 0.0937,-0.6332 0.11524,-0.2066 8.72239,-8.8798 8.93424,-9.0028 0.33444,-0.1942 0.80935,-0.055 0.98748,0.2894 0.153,0.2959 0.15311,2.7589 0,3.0491 -0.12684,0.2407 -10.67505,10.7959 -10.93002,10.9373 -0.23795,0.132 -5.09011,0.1466 -5.33691,0.016 -0.21005,-0.1111 -2.90916,-2.7322 -3.02991,-2.9424 -0.13836,-0.2408 -0.11499,-0.4643 0.0911,-0.871 0.15893,-0.3136 0.1875,-0.4734 0.1875,-1.0487 0,-0.6445 -0.0165,-0.7137 -0.32569,-1.3713 -0.62001,-1.3184 -1.66329,-2.005 -3.04647,-2.005 -0.5701,0 -0.75582,0.034 -1.2645,0.2334 -0.50672,0.1983 -0.67566,0.3138 -1.12494,0.7687 -0.43708,0.4426 -0.5685,0.6364 -0.75854,1.1186 -0.19564,0.4964 -0.22986,0.6827 -0.22986,1.2515 0,0.572 0.0341,0.7552 0.23658,1.2726 0.20658,0.5278 0.30664,0.6714 0.78887,1.1328 0.47823,0.4575 0.64743,0.5657 1.26191,0.8066 l 0.70963,0.2783 2.39018,2.3736 c 1.3146,1.3056 2.52184,2.4431 2.68276,2.528 0.28367,0.1496 0.40617,0.1544 4.02631,0.1576 l 3.73375,0 0.35375,-0.1824 z m -7.70874,-0.7682 c -0.0619,-0.022 -1.1925,-1.1133 -2.5125,-2.4242 l -2.4,-2.3833 -0.44933,-0.049 c -0.92097,-0.1 -1.79539,-0.7367 -2.19787,-1.6005 -0.17054,-0.366 -0.20043,-0.5309 -0.20043,-1.1052 0,-0.5743 0.0299,-0.7392 0.20043,-1.1052 0.25609,-0.5496 0.84237,-1.1359 1.39202,-1.392 0.36601,-0.1705 0.53088,-0.2004 1.10518,-0.2004 0.57431,0 0.73918,0.03 1.10519,0.2004 0.54964,0.2561 1.13593,0.8424 1.39202,1.392 0.17093,0.3669 0.20028,0.5296 0.19938,1.1052 -10e-4,0.752 -0.13517,1.1523 -0.56907,1.7001 l -0.23814,0.3007 1.90476,1.9058 1.90476,1.9059 3.03824,0 3.03822,0 5.79357,-5.7939 5.79357,-5.794 0,-21.93745 0,-21.93751 -5.60625,-5.60266 -5.60625,-5.60265 -0.34802,0.0759 c -0.21091,0.046 -1.42232,0.0668 -3.075,0.0528 -2.69714,-0.0228 -2.73067,-0.025 -3.06448,-0.19977 -0.46188,-0.24182 -0.87474,-0.65044 -1.10969,-1.0983 -0.16746,-0.31921 -0.19672,-0.46983 -0.19672,-1.0125 0,-0.54267 0.0293,-0.69328 0.19672,-1.0125 0.23495,-0.44785 0.64781,-0.85647 1.10969,-1.0983 l 0.3375,-0.1767 2.9625,0 2.9625,0 0.3375,0.1767 c 0.46188,0.24183 0.87474,0.65045 1.1097,1.0983 0.16688,0.31812 0.19696,0.47171 0.19831,1.0125 9e-4,0.36075 -0.0371,0.70262 -0.0875,0.7875 -0.0813,0.13692 0.42246,0.6618 5.77646,6.01893 l 5.86549,5.86893 0,22.64976 0,22.64972 -6.31875,6.3189 -6.31876,6.3188 -3.65624,0.014 c -2.01093,0.01 -3.70687,0 -3.76875,-0.027 z m -4.58213,-5.9474 c 1.06096,-0.3043 1.53688,-1.5978 0.93142,-2.5316 -0.6537,-1.0081 -2.16857,-1.0101 -2.82113,0 -0.84771,1.3074 0.38848,2.9659 1.88971,2.5354 z m 8.9835,-63.3818 c 0.28732,-0.10855 0.62049,-0.43221 0.74537,-0.72407 0.36239,-0.84696 -0.28447,-1.82116 -1.20924,-1.82116 -0.70671,0 -1.3125,0.60242 -1.3125,1.30521 0,0.90819 0.93224,1.55895 1.77637,1.24002 z m -1.12128,64.4279 c -0.74761,-0.1887 -1.49899,-0.824 -1.83979,-1.5554 -0.17054,-0.3661 -0.20043,-0.5309 -0.20043,-1.1052 0,-0.5743 0.0299,-0.7392 0.20043,-1.1052 0.25609,-0.5497 0.84237,-1.1359 1.39202,-1.392 0.59471,-0.2771 1.58002,-0.2857 2.18044,-0.019 l 0.40026,0.1777 5.09349,-5.093 5.09349,-5.09311 0,-15.86298 0,-15.86297 -3.96357,-3.96304 -3.96357,-3.96304 -0.40518,0.21331 -0.40518,0.2133 -2.9625,0 -2.9625,0 -0.3375,-0.1767 c -0.46188,-0.24182 -0.87474,-0.65044 -1.10969,-1.0983 -0.16746,-0.31921 -0.19672,-0.46983 -0.19672,-1.0125 0,-0.54267 0.0293,-0.69328 0.19672,-1.0125 0.23495,-0.44785 0.64781,-0.85647 1.10969,-1.0983 l 0.3375,-0.1767 2.9625,0 2.9625,0 0.3375,0.1767 c 0.76474,0.40039 1.24434,1.09117 1.3221,1.90427 l 0.0449,0.46903 4.39777,4.40649 4.39777,4.40649 0,16.57457 0,16.57456 -5.42137,5.42172 -5.42138,5.4218 0.0869,0.4049 c 0.11371,0.5303 0.0388,1.2017 -0.1896,1.7007 -0.23587,0.5152 -0.83379,1.11 -1.35631,1.3492 -0.46258,0.2118 -1.30673,0.2949 -1.7806,0.1752 z m 1.13778,-1.0461 c 1.06096,-0.3043 1.53688,-1.5978 0.93142,-2.5316 -0.6537,-1.0081 -2.16857,-1.0101 -2.82113,0 -0.84771,1.3074 0.38848,2.9659 1.88971,2.5354 z m -0.0165,-54.3818 c 0.28732,-0.10855 0.62049,-0.43221 0.74537,-0.72407 0.36239,-0.84696 -0.28447,-1.82116 -1.20924,-1.82116 -0.70671,0 -1.3125,0.60242 -1.3125,1.30521 0,0.90819 0.93224,1.55895 1.77637,1.24002 z m -10.12128,46.4279 c -0.74761,-0.1887 -1.49899,-0.824 -1.83979,-1.5554 -0.17054,-0.3661 -0.20043,-0.5309 -0.20043,-1.1052 0,-0.5743 0.0299,-0.7392 0.20043,-1.1052 0.34098,-0.7319 1.34295,-1.55389 1.89732,-1.55659 0.0988,-7.5e-4 3.29464,-3.14534 9.35625,-9.2071 l 9.20613,-9.20636 0,-4.38783 0,-4.38782 -2.39844,-2.39757 -2.39843,-2.39755 -0.28282,0.2713 c -0.15554,0.14921 -0.43468,0.35081 -0.62031,0.44799 l -0.3375,0.1767 -2.9625,0 -2.9625,0 -0.375,-0.19977 c -0.45149,-0.24051 -0.85985,-0.65534 -1.0954,-1.11273 -0.1417,-0.27514 -0.17378,-0.45528 -0.17366,-0.975 0,-0.54249 0.0295,-0.69339 0.19687,-1.0125 0.23495,-0.44785 0.64781,-0.85647 1.10969,-1.0983 l 0.3375,-0.1767 2.9625,0 2.9625,0 0.375,0.19977 c 0.58907,0.31381 1.2375,1.1107 1.2375,1.52082 0,0.0627 0.0782,0.13368 0.17381,0.15768 0.0956,0.024 1.48777,1.35792 3.09375,2.96429 l 2.91994,2.92066 0,5.09953 0,5.09952 -9.0588,9.05903 -9.0588,9.05904 0.34915,0.36439 c 0.54654,0.5704 0.74109,1.064 0.74109,1.8803 0,0.5743 -0.0299,0.7391 -0.20043,1.1052 -0.25426,0.5457 -0.84308,1.1372 -1.37402,1.3802 -0.46258,0.2118 -1.30673,0.2949 -1.7806,0.1752 z m 1.13778,-1.0461 c 1.06096,-0.3043 1.53688,-1.5978 0.93142,-2.5316 -0.6537,-1.0081 -2.16857,-1.0101 -2.82113,0 -0.84771,1.3074 0.38848,2.9659 1.88971,2.5354 z m 8.9835,-36.3818 c 0.28732,-0.10855 0.62049,-0.43221 0.74537,-0.72407 0.36239,-0.84696 -0.28447,-1.82116 -1.20924,-1.82116 -0.70671,0 -1.3125,0.60242 -1.3125,1.30521 0,0.90819 0.93224,1.55895 1.77637,1.24002 z m -28.40136,46.8798 0,-0.375 -0.9,0 -0.9,0 0,-0.9375 0,-0.9375 -0.4125,0 -0.4125,0 0,1.0575 0,1.0575 0.255,0.255 0.255,0.255 1.0575,0 1.0575,0 0,-0.375 z m 4.03374,0.2579 c 0.3259,-0.2283 0.39126,-0.4837 0.39126,-1.5292 l 0,-0.9787 -0.375,0 -0.375,0 0,0.9375 0,0.9375 -0.9375,0 -0.9375,0 0,0.375 0,0.375 1.03331,0 c 0.81498,0 1.06862,-0.025 1.20043,-0.1171 z m -2.61588,-1.7559 c 1.06096,-0.3043 1.53688,-1.5978 0.93142,-2.5316 -0.6537,-1.0081 -2.16856,-1.0101 -2.82113,0 -0.8477,1.3074 0.38848,2.9659 1.88971,2.5354 z m -3.21786,-3.452 0,-0.9 0.9,0 0.9,0 0,-0.4125 0,-0.4125 -1.0575,0 -1.0575,0 -0.255,0.255 -0.255,0.255 0,1.0575 0,1.0575 0.4125,0 0.4125,0 0,-0.9 z m 6.225,-0.1575 0,-1.0575 -0.255,-0.255 -0.255,-0.255 -1.0575,0 -1.0575,0 0,0.4125 0,0.4125 0.9375,0 0.9375,0 0,0.9 0,0.9 0.375,0 0.375,0 0,-1.0575 z m 6.72929,-3.8975 c 0.83046,-0.3276 1.35313,-0.8467 1.79754,-1.7853 l 0.33274,-0.7028 -0.0278,-0.7222 c -0.0153,-0.3972 -0.0732,-0.826 -0.12873,-0.9528 -0.0617,-0.1407 -0.0802,-0.3159 -0.0478,-0.45 0.0384,-0.1583 2.37951,-2.54764 8.40876,-8.58193 5.90934,-5.91426 8.38926,-8.44413 8.47072,-8.64134 0.0947,-0.22926 0.11519,-0.67334 0.11519,-2.49747 0,-2.42711 0.0221,-2.56759 0.42771,-2.71769 0.11539,-0.0427 0.46818,-0.16785 0.78399,-0.27811 0.49339,-0.17225 0.6366,-0.26572 1.0176,-0.66418 0.60687,-0.63467 0.9207,-1.37849 0.9207,-2.18213 0,-0.50098 -0.0335,-0.63793 -0.29058,-1.18647 -0.38309,-0.81753 -0.89518,-1.32548 -1.60488,-1.59191 l -0.50796,-0.1907 -2.95302,0 -2.95302,0 -0.55152,0.22174 c -0.41682,0.16759 -0.63394,0.31157 -0.88902,0.58952 -0.5071,0.5526 -0.77059,0.6483 -1.18912,0.43187 -0.25945,-0.13417 -0.38588,-0.40611 -0.38588,-0.83 0,-0.52067 -0.41891,-1.33996 -0.94734,-1.85278 -1.24824,-1.21136 -2.95971,-1.19879 -4.20489,0.0309 -0.37053,0.36592 -0.50355,0.56367 -0.65625,0.97563 l -0.19152,0.51669 0,2.91642 0,2.91642 0.19152,0.51669 c 0.1527,0.41197 0.28572,0.60972 0.65625,0.97564 1.26643,1.25067 3.0355,1.23778 4.26689,-0.0311 0.50474,-0.52011 0.88534,-1.29117 0.88534,-1.79362 0,-0.42117 0.12693,-0.69326 0.38588,-0.82716 0.42208,-0.21827 0.67131,-0.12467 1.22662,0.46067 0.47849,0.50435 1.16678,0.78245 1.93657,0.78245 0.57955,0 0.87987,0.12188 1.01133,0.41041 0.13796,0.30278 0.12333,3.28322 -0.0174,3.54957 -0.12758,0.24141 -16.29892,16.42038 -16.55407,16.56188 -0.097,0.0538 -0.28522,0.099 -0.41821,0.10049 -0.13299,10e-4 -0.50424,0.10609 -0.825,0.23251 -0.48215,0.19004 -0.67595,0.32146 -1.11855,0.75854 -0.45495,0.44925 -0.57041,0.61825 -0.76875,1.12495 -0.19885,0.508 -0.2334,0.6947 -0.2334,1.2616 0,0.567 0.0346,0.7537 0.2334,1.2617 0.19833,0.5067 0.31382,0.6757 0.76875,1.125 0.72863,0.7196 1.34797,0.9788 2.35215,0.9845 0.60065,0 0.76864,-0.026 1.275,-0.2262 z m -1.87421,-0.4469 c -0.74761,-0.1887 -1.49899,-0.824 -1.83979,-1.5554 -0.17054,-0.3661 -0.20043,-0.5309 -0.20043,-1.1052 0,-0.5743 0.0299,-0.7392 0.20043,-1.1052 0.25699,-0.5516 0.84447,-1.13787 1.39083,-1.388 0.32549,-0.14902 0.57339,-0.20156 1.0275,-0.21781 l 0.59851,-0.0214 8.49643,-8.49618 8.49643,-8.49619 0,-2.48631 0,-2.48631 -1.25625,-0.0289 c -1.18241,-0.0272 -1.27829,-0.0405 -1.63125,-0.22608 -0.4501,-0.23664 -0.85896,-0.651 -1.0954,-1.11012 -0.14165,-0.27504 -0.17381,-0.45547 -0.17381,-0.975 0,-0.51952 0.0322,-0.69996 0.17381,-0.975 0.23555,-0.45738 0.64391,-0.87221 1.0954,-1.11273 l 0.375,-0.19977 2.9625,0 2.9625,0 0.375,0.19977 c 0.4515,0.24052 0.85986,0.65535 1.09541,1.11273 0.1417,0.27515 0.17378,0.45529 0.17366,0.975 0,0.54249 -0.0295,0.69339 -0.19687,1.0125 -0.23718,0.45211 -0.65294,0.86131 -1.1097,1.09221 -0.26902,0.13601 -0.50055,0.1776 -1.1412,0.20499 l -0.80369,0.0344 -0.0213,2.84042 -0.0213,2.84043 -8.61,8.61017 -8.61,8.61018 0.15639,0.1988 c 0.35079,0.4459 0.48409,0.8837 0.4852,1.5934 9e-4,0.5757 -0.0285,0.7384 -0.19938,1.1052 -0.25426,0.5457 -0.84308,1.1372 -1.37402,1.3803 -0.46258,0.2118 -1.30673,0.2948 -1.7806,0.1752 z m 1.13778,-1.0461 c 1.06096,-0.3043 1.53688,-1.5978 0.93142,-2.5316 -0.6537,-1.0081 -2.16857,-1.0101 -2.82113,0 -0.84771,1.3074 0.38848,2.9659 1.88971,2.5354 z m 17.9835,-27.3818 c 0.28732,-0.10855 0.62049,-0.43221 0.74537,-0.72407 0.36239,-0.84696 -0.28447,-1.82116 -1.20924,-1.82116 -0.70671,0 -1.3125,0.60242 -1.3125,1.30521 0,0.90819 0.93224,1.55895 1.77637,1.24002 z m -10.06387,3.3141 c -0.62903,-0.16696 -1.2199,-0.6571 -1.5483,-1.28433 l -0.1767,-0.3375 0,-2.9625 0,-2.9625 0.1767,-0.3375 c 0.24183,-0.46188 0.65045,-0.87474 1.0983,-1.10969 0.31922,-0.16746 0.46983,-0.19672 1.0125,-0.19672 0.54267,0 0.69329,0.0293 1.0125,0.19672 0.44786,0.23495 0.85648,0.64781 1.0983,1.10969 l 0.1767,0.3375 0,2.9625 0,2.9625 -0.1767,0.3375 c -0.41532,0.79327 -1.11502,1.2651 -1.94937,1.31451 -0.27441,0.0163 -0.60018,0.003 -0.72393,-0.0302 z m 1.06387,-3.3141 c 0.28732,-0.10855 0.62049,-0.43221 0.74537,-0.72407 0.36239,-0.84696 -0.28447,-1.82116 -1.20924,-1.82116 -0.70671,0 -1.3125,0.60242 -1.3125,1.30521 0,0.90819 0.93224,1.55895 1.77637,1.24002 z m 9.75293,28.8748 c 0.82707,-0.3262 1.35347,-0.8474 1.79276,-1.7751 0.31194,-0.6587 0.32794,-0.7255 0.32794,-1.3699 0,-0.6431 -0.0165,-0.7126 -0.32589,-1.37 -0.42301,-0.8989 -0.94836,-1.41791 -1.78764,-1.76607 -0.50269,-0.20853 -0.6624,-0.23896 -1.2543,-0.23896 -0.57995,0 -0.76279,0.0333 -1.26147,0.22986 -0.48215,0.19004 -0.67595,0.32146 -1.11855,0.75854 -0.45495,0.44923 -0.57041,0.61823 -0.76875,1.12493 -0.19885,0.508 -0.2334,0.6947 -0.2334,1.2617 0,0.5669 0.0346,0.7536 0.2334,1.2616 0.19833,0.5067 0.31382,0.6757 0.76875,1.125 0.72863,0.7196 1.34797,0.9789 2.35215,0.9845 0.60065,0 0.76864,-0.026 1.275,-0.2261 z m -1.87421,-0.4469 c -0.74761,-0.1887 -1.49899,-0.824 -1.83979,-1.5554 -0.17054,-0.3661 -0.20043,-0.5309 -0.20043,-1.1052 0,-0.5743 0.0299,-0.7392 0.20043,-1.1052 0.25609,-0.5497 0.84237,-1.13594 1.39202,-1.39203 0.36601,-0.17054 0.53088,-0.20043 1.10518,-0.20043 0.57431,0 0.73918,0.0299 1.10519,0.20043 0.2366,0.11023 0.6015,0.37175 0.81088,0.58113 0.20939,0.2094 0.47091,0.5743 0.58114,0.8109 0.17054,0.366 0.20043,0.5309 0.20043,1.1052 0,0.5743 -0.0299,0.7391 -0.20043,1.1052 -0.25426,0.5457 -0.84308,1.1372 -1.37402,1.3802 -0.46258,0.2118 -1.30673,0.2949 -1.7806,0.1752 z m 1.13778,-1.0461 c 1.06096,-0.3043 1.53688,-1.5978 0.93142,-2.5316 -0.6537,-1.0081 -2.16857,-1.0101 -2.82113,0 -0.84771,1.3074 0.38848,2.9659 1.88971,2.5354 z m -35.37827,-23.58065 c 0.71546,-0.33114 1.31336,-0.93485 1.63131,-1.64715 l 0.2291,-0.51324 0,-2.91385 0,-2.91386 -0.25359,-0.5479 c -0.17884,-0.38639 -0.38335,-0.67382 -0.69375,-0.97506 -1.24824,-1.21136 -2.95971,-1.19879 -4.20489,0.0309 -0.37054,0.36592 -0.50355,0.56367 -0.65625,0.97563 l -0.19152,0.51669 0,2.91642 0,2.91642 0.19152,0.51669 c 0.15272,0.41203 0.28565,0.60963 0.65625,0.97552 0.64541,0.63721 1.28108,0.90998 2.12932,0.91368 0.54339,0.002 0.67807,-0.0267 1.1625,-0.2509 z m -1.70209,-0.48708 c -0.62904,-0.16696 -1.21991,-0.6571 -1.5483,-1.28433 l -0.1767,-0.3375 0,-2.9625 0,-2.9625 0.1767,-0.3375 c 0.24182,-0.46188 0.65044,-0.87474 1.0983,-1.10969 0.31921,-0.16746 0.46983,-0.19672 1.0125,-0.19672 0.54267,0 0.69328,0.0293 1.0125,0.19672 0.44785,0.23495 0.85647,0.64781 1.0983,1.10969 l 0.1767,0.3375 0,2.9625 0,2.9625 -0.1767,0.3375 c -0.41533,0.79327 -1.11503,1.2651 -1.94938,1.31451 -0.27441,0.0163 -0.60017,0.003 -0.72392,-0.0302 z m 1.06386,-3.3141 c 0.28732,-0.10855 0.62049,-0.43221 0.74538,-0.72407 0.36238,-0.84696 -0.28448,-1.82116 -1.20924,-1.82116 -0.70672,0 -1.3125,0.60242 -1.3125,1.30521 0,0.90819 0.93223,1.55895 1.77636,1.24002 z m 18.63823,3.80118 c 0.71546,-0.33114 1.31335,-0.93485 1.63131,-1.64715 l 0.22909,-0.51324 0,-2.91385 0,-2.91386 -0.25359,-0.5479 c -0.17883,-0.38639 -0.38334,-0.67382 -0.69375,-0.97506 -1.24824,-1.21136 -2.95971,-1.19879 -4.20489,0.0309 -0.37053,0.36592 -0.50355,0.56367 -0.65625,0.97563 l -0.19152,0.51669 0,2.91642 0,2.91642 0.19152,0.51669 c 0.15273,0.41203 0.28566,0.60963 0.65625,0.97552 0.64542,0.63721 1.28109,0.90998 2.12933,0.91368 0.54339,0.002 0.67807,-0.0267 1.1625,-0.2509 z m -1.7021,-0.48708 c -0.62903,-0.16696 -1.2199,-0.6571 -1.5483,-1.28433 l -0.1767,-0.3375 0,-2.9625 0,-2.9625 0.1767,-0.3375 c 0.24183,-0.46188 0.65045,-0.87474 1.0983,-1.10969 0.31922,-0.16746 0.46983,-0.19672 1.0125,-0.19672 0.54267,0 0.69329,0.0293 1.0125,0.19672 0.44786,0.23495 0.85648,0.64781 1.0983,1.10969 l 0.1767,0.3375 0,2.9625 0,2.9625 -0.1767,0.3375 c -0.41532,0.79327 -1.11502,1.2651 -1.94937,1.31451 -0.27441,0.0163 -0.60018,0.003 -0.72393,-0.0302 z m 1.06387,-3.3141 c 0.28732,-0.10855 0.62049,-0.43221 0.74537,-0.72407 0.36239,-0.84696 -0.28447,-1.82116 -1.20924,-1.82116 -0.70671,0 -1.3125,0.60242 -1.3125,1.30521 0,0.90819 0.93224,1.55895 1.77637,1.24002 z m -33.07182,-7.46092 c 0.70969,-0.26643 1.22178,-0.77438 1.60488,-1.59191 0.2612,-0.55743 0.29058,-0.6805 0.29058,-1.2174 0,-0.53689 -0.0294,-0.65997 -0.29058,-1.21739 -0.3831,-0.81753 -0.89519,-1.32548 -1.60488,-1.59191 l -0.50797,-0.1907 -2.92157,0 -2.92158,0 -0.50796,0.1907 c -0.7097,0.26643 -1.2217901,0.77438 -1.6048801,1.59191 -0.26121,0.55742 -0.29058,0.6805 -0.29058,1.21739 0,0.5369 0.0294,0.65997 0.29058,1.2174 0.3768,0.80409 0.8954901,1.32405 1.5844201,1.58829 l 0.4875,0.18698 2.94204,0.004 2.94203,0.004 0.50797,-0.1907 z m -6.31704,-0.55261 c -0.62232,-0.1579 -1.22338,-0.65638 -1.5454101,-1.2817 -0.1417,-0.27514 -0.17378,-0.45528 -0.17366,-0.975 0,-0.54249 0.0295,-0.69339 0.1968701,-1.0125 0.23496,-0.44785 0.64782,-0.85647 1.1097,-1.0983 l 0.3375,-0.1767 2.9625,0 2.9625,0 0.3375,0.1767 c 0.46188,0.24183 0.87474,0.65045 1.10969,1.0983 0.16746,0.31922 0.19672,0.46983 0.19672,1.0125 0,0.54267 -0.0293,0.69329 -0.19672,1.0125 -0.23495,0.44786 -0.64781,0.85648 -1.10969,1.0983 -0.33558,0.17569 -0.35356,0.17678 -3.15,0.18984 -1.54688,0.007 -2.91375,-0.0125 -3.0375,-0.0439 z m 3.38886,-0.98647 c 0.28732,-0.10855 0.62049,-0.43221 0.74538,-0.72407 0.36238,-0.84696 -0.28448,-1.82116 -1.20924,-1.82116 -0.70672,0 -1.3125,0.60242 -1.3125,1.30521 0,0.90819 0.93223,1.55895 1.77636,1.24002 z m 2.92818,-7.46092 c 0.70969,-0.26643 1.22178,-0.77438 1.60488,-1.59191 0.2612,-0.55743 0.29058,-0.6805 0.29058,-1.2174 0,-0.53689 -0.0294,-0.65997 -0.29058,-1.21739 -0.3831,-0.81753 -0.89519,-1.32548 -1.60488,-1.59191 l -0.50797,-0.1907 -2.92157,0 -2.92158,0 -0.50796,0.1907 c -0.7097,0.26643 -1.2217901,0.77438 -1.6048801,1.59191 -0.26121,0.55742 -0.29058,0.6805 -0.29058,1.21739 0,0.5369 0.0294,0.65997 0.29058,1.2174 0.3768,0.80409 0.8954901,1.32405 1.5844201,1.58829 l 0.4875,0.18698 2.94204,0.004 2.94203,0.004 0.50797,-0.1907 z m -6.31704,-0.55261 c -0.62232,-0.1579 -1.22338,-0.65638 -1.5454101,-1.2817 -0.1417,-0.27514 -0.17378,-0.45528 -0.17366,-0.975 0,-0.54249 0.0295,-0.69339 0.1968701,-1.0125 0.23496,-0.44785 0.64782,-0.85647 1.1097,-1.0983 l 0.3375,-0.1767 2.9625,0 2.9625,0 0.3375,0.1767 c 0.46188,0.24183 0.87474,0.65045 1.10969,1.0983 0.16746,0.31922 0.19672,0.46983 0.19672,1.0125 0,0.54267 -0.0293,0.69329 -0.19672,1.0125 -0.23495,0.44786 -0.64781,0.85648 -1.10969,1.0983 -0.33558,0.17569 -0.35356,0.17678 -3.15,0.18984 -1.54688,0.007 -2.91375,-0.0125 -3.0375,-0.0439 z m 3.38886,-0.98647 c 0.28732,-0.10855 0.62049,-0.43221 0.74538,-0.72407 0.36238,-0.84696 -0.28448,-1.82116 -1.20924,-1.82116 -0.70672,0 -1.3125,0.60242 -1.3125,1.30521 0,0.90819 0.93223,1.55895 1.77636,1.24002 z m 2.92818,-7.46092 c 0.70969,-0.26643 1.22178,-0.77438 1.60488,-1.59191 0.2612,-0.55743 0.29058,-0.6805 0.29058,-1.2174 0,-0.53689 -0.0294,-0.65997 -0.29058,-1.21739 -0.3831,-0.81753 -0.89519,-1.32548 -1.60488,-1.59191 l -0.50797,-0.1907 -2.92157,0 -2.92158,0 -0.50796,0.1907 c -0.7097,0.26643 -1.2217901,0.77438 -1.6048801,1.59191 -0.26121,0.55742 -0.29058,0.6805 -0.29058,1.21739 0,0.5369 0.0294,0.65997 0.29058,1.2174 0.3768,0.80409 0.8954901,1.32405 1.5844201,1.58829 l 0.4875,0.18698 2.94204,0.004 2.94203,0.004 0.50797,-0.1907 z m -6.31704,-0.55261 c -0.62232,-0.1579 -1.22338,-0.65638 -1.5454101,-1.2817 -0.1417,-0.27514 -0.17378,-0.45528 -0.17366,-0.975 0,-0.54249 0.0295,-0.69339 0.1968701,-1.0125 0.23496,-0.44785 0.64782,-0.85647 1.1097,-1.0983 l 0.3375,-0.1767 2.9625,0 2.9625,0 0.3375,0.1767 c 0.46188,0.24183 0.87474,0.65045 1.10969,1.0983 0.16746,0.31922 0.19672,0.46983 0.19672,1.0125 0,0.54267 -0.0293,0.69329 -0.19672,1.0125 -0.23495,0.44786 -0.64781,0.85648 -1.10969,1.0983 -0.33558,0.17569 -0.35356,0.17678 -3.15,0.18984 -1.54688,0.007 -2.91375,-0.0125 -3.0375,-0.0439 z m 3.38886,-0.98647 c 0.28732,-0.10855 0.62049,-0.43221 0.74538,-0.72407 0.36238,-0.84696 -0.28448,-1.82116 -1.20924,-1.82116 -0.70672,0 -1.3125,0.60242 -1.3125,1.30521 0,0.90819 0.93223,1.55895 1.77636,1.24002 z m 56.92817,-7.46092 c 0.7097,-0.26643 1.22179,-0.77438 1.60488,-1.59191 0.26121,-0.55743 0.29058,-0.6805 0.29058,-1.2174 0,-0.53689 -0.0294,-0.65997 -0.29058,-1.21739 -0.38309,-0.81753 -0.89518,-1.32548 -1.60488,-1.59191 l -0.50796,-0.1907 -2.94045,0 -2.94045,0 -0.5177,0.19783 c -1.51084,0.57733 -2.24553,2.32105 -1.65228,3.92156 0.28373,0.76544 0.86583,1.38112 1.56889,1.65939 l 0.52291,0.20697 2.97954,0.007 2.97954,0.007 0.50796,-0.1907 z m -6.31704,-0.55261 c -0.62232,-0.1579 -1.22337,-0.65638 -1.5454,-1.2817 -0.1417,-0.27514 -0.17378,-0.45528 -0.17366,-0.975 0,-0.54249 0.0295,-0.69339 0.19687,-1.0125 0.23495,-0.44785 0.64781,-0.85647 1.10969,-1.0983 l 0.3375,-0.1767 2.9625,0 2.9625,0 0.3375,0.1767 c 0.46188,0.24183 0.87474,0.65045 1.1097,1.0983 0.16746,0.31922 0.19672,0.46983 0.19672,1.0125 0,0.54267 -0.0293,0.69329 -0.19672,1.0125 -0.23496,0.44786 -0.64782,0.85648 -1.1097,1.0983 -0.33557,0.17569 -0.35355,0.17678 -3.15,0.18984 -1.54687,0.007 -2.91375,-0.0125 -3.0375,-0.0439 z m 3.38887,-0.98647 c 0.28732,-0.10855 0.62049,-0.43221 0.74537,-0.72407 0.36239,-0.84696 -0.28447,-1.82116 -1.20924,-1.82116 -0.70671,0 -1.3125,0.60242 -1.3125,1.30521 0,0.90819 0.93224,1.55895 1.77637,1.24002 z m -51.07182,-7.46092 c 0.70969,-0.26643 1.22178,-0.77438 1.60488,-1.59191 0.2612,-0.55742 0.29058,-0.6805 0.29058,-1.21739 0,-0.5369 -0.0294,-0.65997 -0.29058,-1.2174 -0.3831,-0.81753 -0.89519,-1.32548 -1.60488,-1.59191 l -0.50797,-0.19069 -2.92157,0 -2.92158,0 -0.50796,0.19069 c -0.7097,0.26643 -1.2217901,0.77438 -1.6048801,1.59191 -0.26121,0.55743 -0.29058,0.6805 -0.29058,1.2174 0,0.53689 0.0294,0.65997 0.29058,1.21739 0.3768,0.8041 0.8954901,1.32406 1.5844201,1.5883 l 0.4875,0.18697 2.94204,0.004 2.94203,0.004 0.50797,-0.19069 z m -6.31704,-0.55261 c -0.62232,-0.15789 -1.22338,-0.65638 -1.5454101,-1.28169 -0.1417,-0.27515 -0.17378,-0.45529 -0.17366,-0.975 0,-0.54249 0.0295,-0.69339 0.1968701,-1.0125 0.23496,-0.44786 0.64782,-0.85648 1.1097,-1.0983 l 0.3375,-0.1767 2.9625,0 2.9625,0 0.3375,0.1767 c 0.46188,0.24182 0.87474,0.65044 1.10969,1.0983 0.16746,0.31921 0.19672,0.46983 0.19672,1.0125 0,0.54267 -0.0293,0.69328 -0.19672,1.0125 -0.23495,0.44785 -0.64781,0.85647 -1.10969,1.0983 -0.33558,0.17568 -0.35356,0.17677 -3.15,0.18984 -1.54688,0.007 -2.91375,-0.0126 -3.0375,-0.044 z m 3.38886,-0.98646 c 0.28732,-0.10856 0.62049,-0.43221 0.74538,-0.72408 0.36238,-0.84696 -0.28448,-1.82115 -1.20924,-1.82115 -0.70672,0 -1.3125,0.60241 -1.3125,1.30521 0,0.90819 0.93223,1.55895 1.77636,1.24002 z m 56.92817,1.53907 c 0.7097,-0.26643 1.22179,-0.77438 1.60488,-1.59191 0.26121,-0.55742 0.29058,-0.6805 0.29058,-1.21739 0,-0.5369 -0.0294,-0.65997 -0.29058,-1.2174 -0.38309,-0.81753 -0.89518,-1.32548 -1.60488,-1.59191 l -0.50796,-0.19069 -2.94045,0 -2.94045,0 -0.52659,0.19698 c -2.42796,0.90821 -2.46537,4.63385 -0.0561,5.58879 l 0.50451,0.19997 2.97954,0.007 2.97954,0.007 0.50796,-0.1907 z m -6.31704,-0.55261 c -0.62232,-0.15789 -1.22337,-0.65638 -1.5454,-1.28169 -0.1417,-0.27515 -0.17378,-0.45529 -0.17366,-0.975 0,-0.54249 0.0295,-0.69339 0.19687,-1.0125 0.23495,-0.44786 0.64781,-0.85648 1.10969,-1.0983 l 0.3375,-0.1767 2.9625,0 2.9625,0 0.3375,0.1767 c 0.46188,0.24182 0.87474,0.65044 1.1097,1.0983 0.16746,0.31921 0.19672,0.46983 0.19672,1.0125 0,0.54267 -0.0293,0.69328 -0.19672,1.0125 -0.23496,0.44785 -0.64782,0.85647 -1.1097,1.0983 -0.33557,0.17568 -0.35355,0.17677 -3.15,0.18984 -1.54687,0.007 -2.91375,-0.0126 -3.0375,-0.044 z m 3.38887,-0.98646 c 0.28732,-0.10856 0.62049,-0.43221 0.74537,-0.72408 0.36239,-0.84696 -0.28447,-1.82115 -1.20924,-1.82115 -0.70671,0 -1.3125,0.60241 -1.3125,1.30521 0,0.90819 0.93224,1.55895 1.77637,1.24002 z m -51.07182,-7.46093 c 0.70969,-0.26643 1.22178,-0.77438 1.60488,-1.59191 0.2612,-0.55742 0.29058,-0.6805 0.29058,-1.21739 0,-0.5369 -0.0294,-0.65997 -0.29058,-1.2174 -0.3831,-0.81753 -0.89519,-1.32548 -1.60488,-1.59191 l -0.50797,-0.19069 -2.92157,0 -2.92158,0 -0.50796,0.19069 c -0.7097,0.26643 -1.2217901,0.77438 -1.6048801,1.59191 -0.26121,0.55743 -0.29058,0.6805 -0.29058,1.2174 0,0.53689 0.0294,0.65997 0.29058,1.21739 0.3768,0.8041 0.8954901,1.32406 1.5844201,1.5883 l 0.4875,0.18697 2.94204,0.004 2.94203,0.004 0.50797,-0.19069 z m -6.31704,-0.55261 c -0.62232,-0.15789 -1.22338,-0.65638 -1.5454101,-1.28169 -0.1417,-0.27515 -0.17378,-0.45529 -0.17366,-0.975 0,-0.54249 0.0295,-0.69339 0.1968701,-1.0125 0.23496,-0.44786 0.64782,-0.85648 1.1097,-1.0983 l 0.3375,-0.1767 2.9625,0 2.9625,0 0.3375,0.1767 c 0.46188,0.24182 0.87474,0.65044 1.10969,1.0983 0.16746,0.31921 0.19672,0.46983 0.19672,1.0125 0,0.54267 -0.0293,0.69328 -0.19672,1.0125 -0.23495,0.44785 -0.64781,0.85647 -1.10969,1.0983 -0.33558,0.17568 -0.35356,0.17677 -3.15,0.18984 -1.54688,0.007 -2.91375,-0.0126 -3.0375,-0.044 z m 3.38886,-0.98646 c 0.28732,-0.10856 0.62049,-0.43221 0.74538,-0.72408 0.36238,-0.84696 -0.28448,-1.82115 -1.20924,-1.82115 -0.70672,0 -1.3125,0.60241 -1.3125,1.30521 0,0.90819 0.93223,1.55895 1.77636,1.24002 z m 43.42817,-2.96093 c 0.7097,-0.26643 1.22179,-0.77438 1.60488,-1.59191 0.26121,-0.55742 0.29058,-0.6805 0.29058,-1.21739 0,-0.5369 -0.0294,-0.65997 -0.29058,-1.2174 -0.38309,-0.81753 -0.89518,-1.32548 -1.60488,-1.59191 l -0.50796,-0.19069 -2.919,0 -2.919,0 -0.51645,0.19143 c -0.72247,0.26779 -1.42784,0.97416 -1.7016,1.70403 -0.26463,0.70552 -0.2643,1.49691 9e-4,2.21241 0.26285,0.70911 0.97355,1.4259 1.68357,1.69798 l 0.4875,0.18681 2.94204,0.004 2.94204,0.004 0.50796,-0.19069 z m -6.31704,-0.55261 c -0.62232,-0.15789 -1.22337,-0.65638 -1.5454,-1.28169 -0.1417,-0.27515 -0.17378,-0.45529 -0.17366,-0.975 0,-0.54249 0.0295,-0.69339 0.19687,-1.0125 0.23495,-0.44786 0.64781,-0.85648 1.10969,-1.0983 l 0.3375,-0.1767 2.9625,0 2.9625,0 0.3375,0.1767 c 0.46188,0.24182 0.87474,0.65044 1.1097,1.0983 0.16746,0.31921 0.19672,0.46983 0.19672,1.0125 0,0.54267 -0.0293,0.69328 -0.19672,1.0125 -0.23496,0.44785 -0.64782,0.85647 -1.1097,1.0983 -0.33557,0.17568 -0.35355,0.17677 -3.15,0.18984 -1.54687,0.007 -2.91375,-0.0126 -3.0375,-0.044 z m 3.38887,-0.98646 c 0.28732,-0.10856 0.62049,-0.43221 0.74537,-0.72408 0.36239,-0.84696 -0.28447,-1.82115 -1.20924,-1.82115 -0.70671,0 -1.3125,0.60241 -1.3125,1.30521 0,0.90819 0.93224,1.55895 1.77637,1.24002 z m -37.57182,-2.96093 c 0.70969,-0.26643 1.22178,-0.77438 1.60488,-1.59191 0.2612,-0.55742 0.29058,-0.6805 0.29058,-1.21739 0,-0.5369 -0.0294,-0.65997 -0.29058,-1.2174 -0.3831,-0.81753 -0.89519,-1.32548 -1.60488,-1.59191 l -0.50797,-0.19069 -2.92157,0 -2.92158,0 -0.50796,0.19069 c -0.7097,0.26643 -1.2217901,0.77438 -1.6048801,1.59191 -0.26121,0.55743 -0.29058,0.6805 -0.29058,1.2174 0,0.53689 0.0294,0.65997 0.29058,1.21739 0.3768,0.8041 0.8954901,1.32406 1.5844201,1.5883 l 0.4875,0.18697 2.94204,0.004 2.94203,0.004 0.50797,-0.19069 z m -6.31704,-0.55261 c -0.62232,-0.15789 -1.22338,-0.65638 -1.5454101,-1.28169 -0.1417,-0.27515 -0.17378,-0.45529 -0.17366,-0.975 0,-0.54249 0.0295,-0.69339 0.1968701,-1.0125 0.23496,-0.44786 0.64782,-0.85648 1.1097,-1.0983 l 0.3375,-0.1767 2.9625,0 2.9625,0 0.3375,0.1767 c 0.46188,0.24182 0.87474,0.65044 1.10969,1.0983 0.16746,0.31921 0.19672,0.46983 0.19672,1.0125 0,0.54267 -0.0293,0.69328 -0.19672,1.0125 -0.23495,0.44785 -0.64781,0.85647 -1.10969,1.0983 -0.33558,0.17568 -0.35356,0.17677 -3.15,0.18984 -1.54688,0.007 -2.91375,-0.0126 -3.0375,-0.044 z m 3.38886,-0.98646 c 0.28732,-0.10856 0.62049,-0.43221 0.74538,-0.72408 0.36238,-0.84696 -0.28448,-1.82115 -1.20924,-1.82115 -0.70672,0 -1.3125,0.60241 -1.3125,1.30521 0,0.90819 0.93223,1.55895 1.77636,1.24002 z m 56.92817,1.53907 c 0.7097,-0.26643 1.22179,-0.77438 1.60488,-1.59191 0.26121,-0.55742 0.29058,-0.6805 0.29058,-1.21739 0,-0.5369 -0.0294,-0.65997 -0.29058,-1.2174 -0.38309,-0.81753 -0.89518,-1.32548 -1.60488,-1.59191 l -0.50796,-0.19069 -2.94045,0 -2.94045,0 -0.52659,0.19681 c -0.73008,0.27287 -1.32073,0.86504 -1.62042,1.62457 -0.26947,0.68296 -0.30168,1.58303 -0.0766,2.13971 0.0781,0.19328 0.18054,0.45397 0.22753,0.57932 0.14546,0.38803 0.87171,1.02369 1.42382,1.2462 l 0.49404,0.19913 2.97954,0.007 2.97954,0.007 0.50796,-0.1907 z m -6.31704,-0.55261 c -0.62232,-0.15789 -1.22337,-0.65638 -1.5454,-1.28169 -0.1417,-0.27515 -0.17378,-0.45529 -0.17366,-0.975 0,-0.54249 0.0295,-0.69339 0.19687,-1.0125 0.23495,-0.44786 0.64781,-0.85648 1.10969,-1.0983 l 0.3375,-0.1767 2.9625,0 2.9625,0 0.3375,0.1767 c 0.46188,0.24182 0.87474,0.65044 1.1097,1.0983 0.16746,0.31921 0.19672,0.46983 0.19672,1.0125 0,0.54267 -0.0293,0.69328 -0.19672,1.0125 -0.23496,0.44785 -0.64782,0.85647 -1.1097,1.0983 -0.33557,0.17568 -0.35355,0.17677 -3.15,0.18984 -1.54687,0.007 -2.91375,-0.0126 -3.0375,-0.044 z m 3.38887,-0.98646 c 0.28732,-0.10856 0.62049,-0.43221 0.74537,-0.72408 0.36239,-0.84696 -0.28447,-1.82115 -1.20924,-1.82115 -0.70671,0 -1.3125,0.60241 -1.3125,1.30521 0,0.90819 0.93224,1.55895 1.77637,1.24002 z m -10.57183,-2.96093 c 0.7097,-0.26643 1.22179,-0.77438 1.60488,-1.59191 0.26121,-0.55742 0.29058,-0.6805 0.29058,-1.21739 0,-0.5369 -0.0294,-0.65997 -0.29058,-1.2174 -0.38309,-0.81753 -0.89518,-1.32548 -1.60488,-1.59191 l -0.50796,-0.19069 -2.919,0 -2.919,0 -0.51645,0.19143 c -0.72247,0.26779 -1.42784,0.97416 -1.7016,1.70403 -0.26463,0.70552 -0.2643,1.49691 9e-4,2.21241 0.26285,0.70911 0.97355,1.4259 1.68357,1.69798 l 0.4875,0.18681 2.94204,0.004 2.94204,0.004 0.50796,-0.19069 z m -6.31704,-0.55261 c -0.62232,-0.15789 -1.22337,-0.65638 -1.5454,-1.28169 -0.1417,-0.27515 -0.17378,-0.45529 -0.17366,-0.975 0,-0.54249 0.0295,-0.69339 0.19687,-1.0125 0.23495,-0.44786 0.64781,-0.85648 1.10969,-1.0983 l 0.3375,-0.1767 2.9625,0 2.9625,0 0.3375,0.1767 c 0.46188,0.24182 0.87474,0.65044 1.1097,1.0983 0.16746,0.31921 0.19672,0.46983 0.19672,1.0125 0,0.54267 -0.0293,0.69328 -0.19672,1.0125 -0.23496,0.44785 -0.64782,0.85647 -1.1097,1.0983 -0.33557,0.17568 -0.35355,0.17677 -3.15,0.18984 -1.54687,0.007 -2.91375,-0.0126 -3.0375,-0.044 z m 3.38887,-0.98646 c 0.28732,-0.10856 0.62049,-0.43221 0.74537,-0.72408 0.36239,-0.84696 -0.28447,-1.82115 -1.20924,-1.82115 -0.70671,0 -1.3125,0.60241 -1.3125,1.30521 0,0.90819 0.93224,1.55895 1.77637,1.24002 z m -37.57182,-2.96093 c 0.70969,-0.26643 1.22178,-0.77438 1.60488,-1.59191 0.2612,-0.55742 0.29058,-0.6805 0.29058,-1.21739 0,-0.5369 -0.0294,-0.65997 -0.29058,-1.2174 -0.3831,-0.81753 -0.89519,-1.32548 -1.60488,-1.59191 l -0.50797,-0.19069 -2.92157,0 -2.92158,0 -0.50796,0.19069 c -0.7097,0.26643 -1.2217901,0.77438 -1.6048801,1.59191 -0.26121,0.55743 -0.29058,0.6805 -0.29058,1.2174 0,0.53689 0.0294,0.65997 0.29058,1.21739 0.3768,0.8041 0.8954901,1.32406 1.5844201,1.5883 l 0.4875,0.18697 2.94204,0.004 2.94203,0.004 0.50797,-0.19069 z m -6.31704,-0.55261 c -0.62232,-0.15789 -1.22338,-0.65638 -1.5454101,-1.28169 -0.1417,-0.27515 -0.17378,-0.45529 -0.17366,-0.975 0,-0.54249 0.0295,-0.69339 0.1968701,-1.0125 0.23496,-0.44786 0.64782,-0.85648 1.1097,-1.0983 l 0.3375,-0.1767 2.9625,0 2.9625,0 0.3375,0.1767 c 0.46188,0.24182 0.87474,0.65044 1.10969,1.0983 0.16746,0.31921 0.19672,0.46983 0.19672,1.0125 0,0.54267 -0.0293,0.69328 -0.19672,1.0125 -0.23495,0.44785 -0.64781,0.85647 -1.10969,1.0983 -0.33558,0.17568 -0.35356,0.17677 -3.15,0.18984 -1.54688,0.007 -2.91375,-0.0126 -3.0375,-0.044 z m 3.38886,-0.98646 c 0.28732,-0.10856 0.62049,-0.43221 0.74538,-0.72408 0.36238,-0.84696 -0.28448,-1.82115 -1.20924,-1.82115 -0.70672,0 -1.3125,0.60241 -1.3125,1.30521 0,0.90819 0.93223,1.55895 1.77636,1.24002 z m 2.93884,-7.46439 c 1.07436,-0.39822 1.8848,-1.61799 1.8848,-2.83677 0,-0.50098 -0.0335,-0.63792 -0.29058,-1.18647 -0.3831,-0.81753 -0.89519,-1.32548 -1.60488,-1.59191 l -0.50797,-0.19069 -2.92157,0 -2.92158,0 -0.50796,0.19069 c -0.7097,0.26643 -1.2217901,0.77438 -1.6048801,1.59191 -0.26121,0.55743 -0.29058,0.6805 -0.29058,1.2174 0,0.53689 0.0294,0.65997 0.29058,1.21739 0.3768,0.8041 0.8954901,1.32406 1.5844201,1.5883 l 0.4875,0.18697 2.93946,0.004 2.93946,0.004 0.52378,-0.19415 z m -6.3277,-0.54915 c -0.62232,-0.15789 -1.22338,-0.65638 -1.5454101,-1.28169 -0.1417,-0.27515 -0.17378,-0.45529 -0.17366,-0.975 0,-0.54249 0.0295,-0.69339 0.1968701,-1.0125 0.23496,-0.44786 0.64782,-0.85648 1.1097,-1.0983 l 0.3375,-0.1767 2.9625,0 2.9625,0 0.3375,0.1767 c 0.46188,0.24182 0.87474,0.65044 1.10969,1.0983 0.16746,0.31921 0.19672,0.46983 0.19672,1.0125 0,0.54267 -0.0293,0.69328 -0.19672,1.0125 -0.23495,0.44785 -0.64781,0.85647 -1.10969,1.0983 -0.33558,0.17568 -0.35356,0.17677 -3.15,0.18984 -1.54688,0.007 -2.91375,-0.0126 -3.0375,-0.044 z m 3.38886,-0.98646 c 0.28732,-0.10856 0.62049,-0.43221 0.74538,-0.72408 0.36238,-0.84696 -0.28448,-1.82115 -1.20924,-1.82115 -0.70672,0 -1.3125,0.60241 -1.3125,1.30521 0,0.90819 0.93223,1.55895 1.77636,1.24002 z m 52.74863,-7.52456 0,-0.40432 -1.10625,-0.0305 c -1.014,-0.0279 -1.13777,-0.0468 -1.48425,-0.22646 -0.4278,-0.22178 -0.92749,-0.72772 -1.07717,-1.09064 -0.0975,-0.23648 -0.11386,-0.24375 -0.54739,-0.24375 l -0.44685,0 0.0499,0.227 c 0.11685,0.53204 0.82221,1.4011 1.49165,1.83783 0.34123,0.22261 0.97304,0.32208 2.08915,0.32888 l 1.03125,0.006 0,-0.40432 z m 4.35469,0.16776 c 0.60514,-0.27888 1.37672,-1.02679 1.56051,-1.51266 0.0808,-0.21355 0.17027,-0.44734 0.19887,-0.51952 0.046,-0.11618 7.5e-4,-0.13125 -0.39694,-0.13125 -0.43586,0 -0.45186,0.007 -0.54945,0.24375 -0.14968,0.36292 -0.64937,0.86886 -1.07717,1.09064 -0.34648,0.17962 -0.47026,0.19851 -1.48426,0.22646 l -1.10625,0.0305 0,0.28569 c 0,0.55994 -0.0398,0.54393 1.26761,0.50948 1.06056,-0.0279 1.20888,-0.0488 1.58708,-0.22309 z m -54.17514,-0.10413 c 0.70969,-0.26643 1.22178,-0.77438 1.60488,-1.59191 0.2612,-0.55742 0.29058,-0.6805 0.29058,-1.21739 0,-0.5369 -0.0294,-0.65997 -0.29058,-1.2174 -0.3831,-0.81753 -0.89519,-1.32548 -1.60488,-1.59191 l -0.50797,-0.19069 -2.92157,0 -2.92158,0 -0.50796,0.19069 c -0.7097,0.26643 -1.2217901,0.77438 -1.6048801,1.59191 -0.26121,0.55743 -0.29058,0.6805 -0.29058,1.2174 0,0.53689 0.0294,0.65997 0.29058,1.21739 0.3768,0.8041 0.8954901,1.32406 1.5844201,1.5883 l 0.4875,0.18697 2.94204,0.004 2.94203,0.004 0.50797,-0.19069 z m -6.31704,-0.55261 c -0.62232,-0.15789 -1.22338,-0.65638 -1.5454101,-1.28169 -0.1417,-0.27515 -0.17378,-0.45529 -0.17366,-0.975 0,-0.54249 0.0295,-0.69339 0.1968701,-1.0125 0.23496,-0.44786 0.64782,-0.85648 1.1097,-1.0983 l 0.3375,-0.1767 2.9625,0 2.9625,0 0.3375,0.1767 c 0.46188,0.24182 0.87474,0.65044 1.10969,1.0983 0.16746,0.31921 0.19672,0.46983 0.19672,1.0125 0,0.54267 -0.0293,0.69328 -0.19672,1.0125 -0.23495,0.44785 -0.64781,0.85647 -1.10969,1.0983 -0.33558,0.17568 -0.35356,0.17677 -3.15,0.18984 -1.54688,0.007 -2.91375,-0.0126 -3.0375,-0.044 z m 3.38886,-0.98646 c 0.28732,-0.10856 0.62049,-0.43221 0.74538,-0.72408 0.36238,-0.84696 -0.28448,-1.82115 -1.20924,-1.82115 -0.70672,0 -1.3125,0.60241 -1.3125,1.30521 0,0.90819 0.93223,1.55895 1.77636,1.24002 z m 54,0 c 0.28732,-0.10856 0.62049,-0.43221 0.74537,-0.72408 0.36239,-0.84696 -0.28447,-1.82115 -1.20924,-1.82115 -0.70671,0 -1.3125,0.60241 -1.3125,1.30521 0,0.90819 0.93224,1.55895 1.77637,1.24002 z m -4.91904,-2.26398 c 0.14968,-0.36293 0.64937,-0.86886 1.07717,-1.09065 0.34648,-0.17962 0.47025,-0.19851 1.48425,-0.22646 l 1.10625,-0.0305 0,-0.40433 0,-0.40432 -0.96122,0 c -1.01929,0 -1.70323,0.0914 -2.07476,0.2773 -0.31613,0.15818 -1.22276,1.05637 -1.38559,1.3727 -0.0743,0.14437 -0.1588,0.37218 -0.18773,0.50625 l -0.0526,0.24375 0.44685,0 c 0.43353,0 0.44986,-0.007 0.54739,-0.24375 z m 9.78053,0.1125 c -0.0293,-0.0722 -0.0891,-0.2325 -0.13308,-0.35625 -0.22077,-0.62187 -0.93048,-1.35218 -1.62978,-1.67709 -0.37695,-0.17513 -0.51754,-0.19429 -1.63125,-0.22233 l -1.21875,-0.0307 0,0.41313 0,0.41313 1.10625,0.0305 c 1.014,0.028 1.13778,0.0468 1.48426,0.22646 0.4278,0.22179 0.92749,0.72772 1.07717,1.09065 0.0976,0.23665 0.11359,0.24375 0.54945,0.24375 0.39781,0 0.44286,-0.0149 0.39573,-0.13125 z m -55.93331,-5.30945 c 0.70969,-0.26643 1.22178,-0.77438 1.60488,-1.59191 0.2612,-0.55742 0.29058,-0.6805 0.29058,-1.21739 0,-0.53645 -0.0295,-0.66045 -0.28995,-1.2174 -0.16937,-0.3622 -0.40597,-0.72927 -0.5689,-0.8826 -0.4802,-0.45189 -0.58993,-0.79143 -0.38428,-1.18913 0.12654,-0.24469 0.40277,-0.38587 0.755,-0.38587 0.14015,0 0.50137,-0.11412 0.80272,-0.25359 0.71546,-0.33115 1.31336,-0.93486 1.63131,-1.64715 l 0.2291,-0.51324 0,-2.91102 0,-2.91102 -0.2291,-0.51324 c -0.31795,-0.7123 -0.91585,-1.31601 -1.63131,-1.64715 -0.47686,-0.22071 -0.62498,-0.25359 -1.14239,-0.25359 -0.53365,0 -0.65794,0.0297 -1.2146,0.29058 -0.79839,0.37412 -1.30744,0.88668 -1.58628,1.59721 l -0.19632,0.50029 0,2.93692 0,2.93691 0.19626,0.50029 c 0.13526,0.34478 0.31913,0.62853 0.59148,0.9128 0.57665,0.60189 0.66165,0.8248 0.47265,1.23959 -0.18078,0.39679 -0.28337,0.41041 -3.09246,0.41041 l -2.58951,0 -0.50796,0.19069 c -0.7097,0.26643 -1.2217901,0.77438 -1.6048801,1.59191 -0.26121,0.55743 -0.29058,0.6805 -0.29058,1.2174 0,0.53689 0.0294,0.65997 0.29058,1.21739 0.3768,0.8041 0.8954901,1.32406 1.5844201,1.5883 l 0.4875,0.18697 2.94204,0.004 2.94203,0.004 0.50797,-0.19069 z m -6.31704,-0.55261 c -0.62232,-0.15789 -1.22338,-0.65638 -1.5454101,-1.28169 -0.1417,-0.27515 -0.17378,-0.45529 -0.17366,-0.975 0,-0.54249 0.0295,-0.69339 0.1968701,-1.0125 0.23496,-0.44786 0.64782,-0.85648 1.1097,-1.0983 l 0.3375,-0.1767 2.9625,0 2.9625,0 0.3375,0.1767 c 0.46188,0.24182 0.87474,0.65044 1.10969,1.0983 0.16746,0.31921 0.19672,0.46983 0.19672,1.0125 0,0.54267 -0.0293,0.69328 -0.19672,1.0125 -0.23495,0.44785 -0.64781,0.85647 -1.10969,1.0983 -0.33558,0.17568 -0.35356,0.17677 -3.15,0.18984 -1.54688,0.007 -2.91375,-0.0126 -3.0375,-0.044 z m 3.38886,-0.98646 c 0.28732,-0.10856 0.62049,-0.43221 0.74538,-0.72408 0.36238,-0.84696 -0.28448,-1.82115 -1.20924,-1.82115 -0.70672,0 -1.3125,0.60241 -1.3125,1.30521 0,0.90819 0.93223,1.55895 1.77636,1.24002 z m 3.43614,-5.6859 c -0.62904,-0.16697 -1.21991,-0.65711 -1.5483,-1.28433 l -0.1767,-0.3375 0,-2.9625 0,-2.9625 0.1767,-0.3375 c 0.24182,-0.46188 0.65044,-0.87474 1.0983,-1.1097 0.31921,-0.16746 0.46983,-0.19672 1.0125,-0.19672 0.54267,0 0.69328,0.0293 1.0125,0.19672 0.44785,0.23496 0.85647,0.64782 1.0983,1.1097 l 0.1767,0.3375 0,2.9625 0,2.9625 -0.1767,0.3375 c -0.41533,0.79326 -1.11503,1.26509 -1.94938,1.3145 -0.27441,0.0163 -0.60017,0.003 -0.72392,-0.0302 z m 1.06386,-3.3141 c 0.28732,-0.10856 0.62049,-0.43221 0.74538,-0.72408 0.36238,-0.84696 -0.28448,-1.82115 -1.20924,-1.82115 -0.70672,0 -1.3125,0.60241 -1.3125,1.30521 0,0.90819 0.93223,1.55895 1.77636,1.24002 z m 34.74863,3.68886 c 0,-0.4268 -0.008,-0.44411 -0.24375,-0.54142 -0.36292,-0.14968 -0.86886,-0.64937 -1.09064,-1.07717 -0.17962,-0.34648 -0.19851,-0.47025 -0.22646,-1.48425 l -0.0305,-1.10625 -0.44182,0 -0.44183,0 0,0.90792 c 0,1.44452 0.20623,2.04582 0.98844,2.88201 0.44781,0.4787 0.71704,0.67013 1.11108,0.78999 0.35959,0.10938 0.37548,0.0937 0.37548,-0.37083 z m -25.1104,0.11232 c 0.71546,-0.33115 1.31336,-0.93486 1.63131,-1.64715 l 0.2291,-0.51324 0,-2.91386 0,-2.91385 -0.25359,-0.54791 c -0.33115,-0.71546 -0.93486,-1.31335 -1.64715,-1.63131 -1.10413,-0.49285 -2.35534,-0.22546 -3.25479,0.69554 -0.33359,0.34158 -0.50346,0.59397 -0.64826,0.96316 l -0.19621,0.50029 0,2.93241 0,2.9324 0.20334,0.52268 c 0.27354,0.70308 0.88938,1.32223 1.63416,1.64296 0.43884,0.18899 0.62586,0.22653 1.13959,0.22877 0.54339,0.002 0.67807,-0.0267 1.1625,-0.25089 z m -1.70209,-0.48708 c -0.62904,-0.16697 -1.21991,-0.65711 -1.5483,-1.28433 l -0.1767,-0.3375 0,-2.9625 0,-2.9625 0.1767,-0.3375 c 0.24182,-0.46188 0.65044,-0.87474 1.0983,-1.1097 0.31921,-0.16746 0.46983,-0.19672 1.0125,-0.19672 0.54267,0 0.69328,0.0293 1.0125,0.19672 0.44785,0.23496 0.85647,0.64782 1.0983,1.1097 l 0.1767,0.3375 0,2.9625 0,2.9625 -0.1767,0.3375 c -0.41533,0.79326 -1.11503,1.26509 -1.94938,1.3145 -0.27441,0.0163 -0.60017,0.003 -0.72392,-0.0302 z m 1.06386,-3.3141 c 0.28732,-0.10856 0.62049,-0.43221 0.74538,-0.72408 0.36238,-0.84696 -0.28448,-1.82115 -1.20924,-1.82115 -0.70672,0 -1.3125,0.60241 -1.3125,1.30521 0,0.90819 0.93223,1.55895 1.77636,1.24002 z m 9.63823,3.80118 c 0.71546,-0.33115 1.31336,-0.93486 1.63131,-1.64715 l 0.2291,-0.51324 0,-2.91386 0,-2.91385 -0.25359,-0.54791 c -0.33115,-0.71546 -0.93486,-1.31335 -1.64715,-1.63131 -1.10413,-0.49285 -2.35534,-0.22546 -3.25479,0.69554 -0.33359,0.34158 -0.50346,0.59397 -0.64826,0.96316 l -0.19621,0.50029 0,2.93241 0,2.9324 0.20334,0.52268 c 0.27354,0.70308 0.88938,1.32223 1.63416,1.64296 0.43884,0.18899 0.62586,0.22653 1.13959,0.22877 0.54339,0.002 0.67807,-0.0267 1.1625,-0.25089 z m -1.70209,-0.48708 c -0.62904,-0.16697 -1.21991,-0.65711 -1.5483,-1.28433 l -0.1767,-0.3375 0,-2.9625 0,-2.9625 0.1767,-0.3375 c 0.24182,-0.46188 0.65044,-0.87474 1.0983,-1.1097 0.31921,-0.16746 0.46983,-0.19672 1.0125,-0.19672 0.54267,0 0.69328,0.0293 1.0125,0.19672 0.44785,0.23496 0.85647,0.64782 1.0983,1.1097 l 0.1767,0.3375 0,2.9625 0,2.9625 -0.1767,0.3375 c -0.41533,0.79326 -1.11503,1.26509 -1.94938,1.3145 -0.27441,0.0163 -0.60017,0.003 -0.72392,-0.0302 z m 1.06386,-3.3141 c 0.28732,-0.10856 0.62049,-0.43221 0.74538,-0.72408 0.36238,-0.84696 -0.28448,-1.82115 -1.20924,-1.82115 -0.70672,0 -1.3125,0.60241 -1.3125,1.30521 0,0.90819 0.93223,1.55895 1.77636,1.24002 z m 9.63823,3.80118 c 0.71546,-0.33115 1.31335,-0.93486 1.63131,-1.64715 l 0.22909,-0.51324 0,-2.91386 0,-2.91385 -0.25359,-0.54791 c -0.33114,-0.71546 -0.93485,-1.31335 -1.64715,-1.63131 -1.10412,-0.49285 -2.35533,-0.22546 -3.25478,0.69554 -0.33359,0.34158 -0.50346,0.59397 -0.64826,0.96316 l -0.19621,0.50029 0,2.93241 0,2.9324 0.20334,0.52268 c 0.27354,0.70308 0.88938,1.32223 1.63416,1.64296 0.43884,0.18899 0.62586,0.22653 1.13959,0.22877 0.54339,0.002 0.67807,-0.0267 1.1625,-0.25089 z m -1.70209,-0.48708 c -0.62904,-0.16697 -1.21991,-0.65711 -1.5483,-1.28433 l -0.1767,-0.3375 0,-2.9625 0,-2.9625 0.1767,-0.3375 c 0.24182,-0.46188 0.65044,-0.87474 1.0983,-1.1097 0.31921,-0.16746 0.46983,-0.19672 1.0125,-0.19672 0.54266,0 0.69328,0.0293 1.01249,0.19672 0.44786,0.23496 0.85648,0.64782 1.0983,1.1097 l 0.1767,0.3375 0,2.9625 0,2.9625 -0.1767,0.3375 c -0.41532,0.79326 -1.11502,1.26509 -1.94937,1.3145 -0.27441,0.0163 -0.60017,0.003 -0.72392,-0.0302 z m 1.06386,-3.3141 c 0.28732,-0.10856 0.62049,-0.43221 0.74537,-0.72408 0.36239,-0.84696 -0.28447,-1.82115 -1.20924,-1.82115 -0.70671,0 -1.31249,0.60241 -1.31249,1.30521 0,0.90819 0.93223,1.55895 1.77636,1.24002 z m 9,0 c 0.28732,-0.10856 0.62049,-0.43221 0.74537,-0.72408 0.36239,-0.84696 -0.28447,-1.82115 -1.20924,-1.82115 -0.70671,0 -1.3125,0.60241 -1.3125,1.30521 0,0.90819 0.93224,1.55895 1.77637,1.24002 z m -2.81222,-3.12648 c 0.0279,-1.014 0.0468,-1.13778 0.22646,-1.48426 0.22178,-0.4278 0.72772,-0.92749 1.09064,-1.07717 0.23648,-0.0975 0.24375,-0.11385 0.24375,-0.54738 l 0,-0.44686 -0.24375,0.0526 c -0.43629,0.0942 -0.77043,0.3144 -1.24225,0.81878 -0.78281,0.83683 -0.989,1.43779 -0.989,2.8826 l 0,0.90793 0.44183,0 0.44182,0 0.0305,-1.10625 z m -3.16415,-5.97216 c 0,-0.46929 -0.005,-0.4803 -0.24375,-0.57807 -0.41049,-0.16786 -0.99246,-0.77896 -1.22787,-1.28934 -0.20422,-0.44277 -0.21656,-0.52914 -0.24077,-1.68543 l -0.0255,-1.21875 -0.44355,0 -0.44355,0 0,1.07025 c 0,1.2513 0.14634,1.92068 0.56991,2.60692 0.37131,0.60158 0.74046,0.93265 1.42119,1.27463 0.32646,0.16401 0.60264,0.2982 0.61374,0.2982 0.0111,0 0.0202,-0.21528 0.0202,-0.47841 z m 2.99754,-0.0574 c 0.54294,-0.3799 0.74802,-0.59704 1.01721,-1.07699 0.39152,-0.69809 0.48525,-1.17914 0.48525,-2.49042 l 0,-1.14674 -0.40605,0 -0.40604,0 -0.0252,1.21875 c -0.0238,1.15077 -0.0369,1.24384 -0.23525,1.66875 -0.25299,0.54197 -0.71284,1.03503 -1.1962,1.28257 l -0.35625,0.18245 0,0.44844 0,0.44842 0.39129,-0.14867 c 0.21521,-0.0818 0.54427,-0.25573 0.73125,-0.38656 z m -1.50467,-3.96211 c 1.06096,-0.30428 1.53688,-1.59781 0.93142,-2.53157 -0.6537,-1.00816 -2.16857,-1.01017 -2.82113,-0.004 -0.84771,1.30736 0.38848,2.96588 1.88971,2.53533 z m -3.20526,-3.77079 c 0.0242,-1.1563 0.0366,-1.24266 0.24077,-1.68543 0.23541,-0.51039 0.81738,-1.12149 1.22787,-1.28935 0.23904,-0.0977 0.24375,-0.10891 0.24375,-0.57713 l 0,-0.47745 -0.39564,0.17497 c -0.82587,0.36524 -1.24132,0.72073 -1.69866,1.4535 -0.38606,0.61856 -0.52791,1.30206 -0.52941,2.55089 l -0.001,1.06875 0.44355,0 0.44355,0 0.0255,-1.21875 z m 6.21239,0.072 c 0,-1.31127 -0.0937,-1.79233 -0.48525,-2.49042 -0.36548,-0.65165 -0.99208,-1.17615 -1.74846,-1.46355 l -0.39129,-0.14867 0,0.44843 0,0.44843 0.35625,0.18245 c 0.48336,0.24755 0.94321,0.7406 1.1962,1.28258 0.19834,0.4249 0.21146,0.51797 0.23525,1.66875 l 0.0252,1.21875 0.40604,0 0.40605,0 0,-1.14675 z m -32.17548,-9.76563 c 0.88389,-0.22197 1.43804,-0.40156 1.61994,-0.525 0.15206,-0.1032 0.30372,-0.18762 0.337,-0.18762 0.0333,0 0.49265,-0.26034 1.02079,-0.57852 0.82952,-0.49976 1.10576,-0.7214 2.02901,-1.628 0.58781,-0.57721 1.06875,-1.08842 1.06875,-1.13602 0,-0.0476 0.0891,-0.2178 0.19801,-0.37825 0.10891,-0.16044 0.40737,-0.66582 0.66326,-1.12307 0.40767,-0.72848 0.5131,-1.0072 0.85199,-2.25231 l 0.38674,-1.42096 0,-1.45787 0,-1.45787 -0.38643,-1.41981 c -0.33793,-1.24161 -0.44298,-1.51956 -0.83704,-2.21481 -0.24784,-0.43725 -0.56155,-0.99751 -0.69714,-1.24501 -0.17238,-0.31466 -0.56051,-0.7574 -1.29057,-1.4721 -0.97075,-0.95034 -1.13294,-1.07507 -2.31018,-1.77661 l -1.26614,-0.75451 -1.36573,-0.34214 -1.36572,-0.34214 -1.50442,0 -1.50442,0 -1.38354,0.34618 -1.38353,0.34618 -1.22132,0.71141 c -1.17341,0.68349 -1.26439,0.75426 -2.31893,1.80377 -1.07281,1.06768 -1.1139101,1.12063 -1.8187201,2.34261 -0.39661,0.68764 -0.75266,1.39921 -0.79122,1.5813 -0.0386,0.18208 -0.18968,0.78667 -0.3358,1.34355 -0.26269,1.00111 -0.26567,1.0298 -0.26561,2.55 l 7e-5,1.5375 0.30244,1.1625 c 0.16634,0.63937 0.33043,1.27087 0.36463,1.40332 0.0342,0.13246 0.37288,0.77371 0.7526,1.425 0.65284,1.11975 0.7481801,1.24253 1.7523101,2.25675 1.0855,1.0964 1.64408,1.50353 2.93691,2.14058 0.2475,0.12196 0.50079,0.26508 0.56287,0.31804 0.0621,0.053 0.70333,0.24735 1.425,0.43197 l 1.31213,0.33569 1.55927,0.007 1.55928,0.007 1.34346,-0.33738 z m -4.1519,-0.34258 c -3.93539,-0.54464 -7.24718,-3.27515 -8.4847801,-6.99554 -0.42776,-1.28592 -0.52237,-1.88579 -0.52237,-3.312 0,-1.42622 0.0946,-2.02608 0.52237,-3.31201 1.0179301,-3.06002 3.4526401,-5.49472 6.5126601,-6.51265 1.28593,-0.42777 1.88579,-0.52238 3.31201,-0.52238 1.42621,0 2.02608,0.0946 3.312,0.52238 3.06003,1.01793 5.49473,3.45263 6.51266,6.51265 0.42776,1.28593 0.52237,1.88579 0.52237,3.31201 0,1.42621 -0.0946,2.02608 -0.52237,3.312 -0.74813,2.24898 -2.26704,4.17185 -4.35572,5.51414 -0.88165,0.56659 -2.309,1.12458 -3.51894,1.37566 -0.71232,0.14781 -2.55741,0.20711 -3.28989,0.10574 z m 2.91489,-5.3482 c 0.82689,-0.26599 1.47834,-0.66499 2.09885,-1.28549 0.61528,-0.61529 1.01401,-1.26299 1.29209,-2.09885 0.17513,-0.52644 0.1996,-0.71954 0.1996,-1.575 0,-0.85547 -0.0245,-1.04856 -0.1996,-1.575 -0.27808,-0.83587 -0.67681,-1.48356 -1.29209,-2.09885 -0.61529,-0.61529 -1.26299,-1.01402 -2.09885,-1.2921 -0.52644,-0.17513 -0.71954,-0.19959 -1.575,-0.19959 -0.85547,0 -1.04856,0.0245 -1.575,0.19959 -0.83587,0.27808 -1.48356,0.67681 -2.09886,1.2921 -0.61528,0.61529 -1.01401,1.26298 -1.29209,2.09885 -0.17513,0.52644 -0.1996,0.71953 -0.1996,1.575 0,0.85459 0.0246,1.04928 0.19936,1.57658 0.60312,1.81993 2.01064,3.08854 3.91619,3.52972 0.68721,0.1591 1.88136,0.0923 2.625,-0.14696 z"
       id="path4201"
       inkscape:connector-curvature="0" />
  </g>
</svg>
